<svg width="108" height="31" viewBox="0 0 108 31" fill="none" xmlns="http://www.w3.org/2000/svg">
<path d="M2.496 29C2.21867 29 2.08 28.872 2.08 28.616V7.88C2.08 7.60267 2.21867 7.464 2.496 7.464H13.184C13.44 7.464 13.5893 7.48533 13.632 7.528C13.6747 7.57067 13.696 7.70933 13.696 7.944V10.184C13.696 10.44 13.664 10.6 13.6 10.664C13.536 10.7067 13.3973 10.728 13.184 10.728H6.592C6.44267 10.728 6.35733 10.7387 6.336 10.76C6.31467 10.7813 6.304 10.856 6.304 10.984V16.264C6.304 16.392 6.31467 16.4773 6.336 16.52C6.37867 16.5413 6.45333 16.552 6.56 16.552H11.68C11.9573 16.552 12.1173 16.584 12.16 16.648C12.2027 16.6907 12.224 16.8613 12.224 17.16V19.176C12.224 19.4533 12.192 19.624 12.128 19.688C12.0853 19.7307 11.936 19.752 11.68 19.752H6.56C6.45333 19.752 6.37867 19.7627 6.336 19.784C6.31467 19.8053 6.304 19.8693 6.304 19.976V28.392C6.304 28.6907 6.272 28.872 6.208 28.936C6.16533 28.9787 5.99467 29 5.696 29H2.496ZM20.9383 29.256C19.0823 29.256 17.6423 28.9147 16.6183 28.232C15.6156 27.528 14.9116 26.5893 14.5063 25.416C14.1223 24.2213 13.9303 22.8667 13.9303 21.352C13.9303 19.88 14.1543 18.568 14.6023 17.416C15.0503 16.2427 15.7756 15.3253 16.7783 14.664C17.8023 13.9813 19.1889 13.64 20.9383 13.64C22.7089 13.64 24.0956 13.9813 25.0983 14.664C26.1223 15.3253 26.8476 16.2427 27.2743 17.416C27.7223 18.568 27.9463 19.88 27.9463 21.352C27.9463 22.8453 27.7543 24.1893 27.3703 25.384C26.9863 26.5573 26.2823 27.496 25.2583 28.2C24.2556 28.904 22.8156 29.256 20.9383 29.256ZM20.9062 26.12C21.9516 26.12 22.6876 25.7147 23.1143 24.904C23.5409 24.0933 23.7543 22.952 23.7543 21.48C23.7543 20.008 23.5196 18.8987 23.0503 18.152C22.6023 17.384 21.8876 17 20.9062 17C19.9463 17 19.2316 17.384 18.7623 18.152C18.3143 18.8987 18.0903 20.008 18.0903 21.48C18.0903 22.9733 18.2929 24.1253 18.6983 24.936C19.1249 25.7253 19.8609 26.12 20.9062 26.12ZM29.8 29C29.608 29 29.4907 28.9253 29.448 28.776C29.4053 28.6053 29.4053 28.4347 29.448 28.264C29.512 28.072 29.544 27.9547 29.544 27.912C29.5867 27.656 29.6827 27.3147 29.832 26.888C29.9813 26.44 30.1733 25.9387 30.408 25.384C30.664 24.808 30.952 24.1787 31.272 23.496C31.6133 22.8133 31.9867 22.1093 32.392 21.384C32.456 21.2773 32.4773 21.192 32.456 21.128C32.456 21.0427 32.4133 20.9467 32.328 20.84C31.8373 20.1573 31.4 19.432 31.016 18.664C30.632 17.8747 30.312 17.1387 30.056 16.456C29.8213 15.752 29.64 15.1867 29.512 14.76C29.384 14.312 29.32 14.088 29.32 14.088C29.2987 13.96 29.3413 13.896 29.448 13.896H33.288C33.4373 13.896 33.544 13.9173 33.608 13.96C33.6933 14.0027 33.768 14.1307 33.832 14.344C33.8747 14.5787 33.9707 14.9627 34.12 15.496C34.2693 16.008 34.44 16.5413 34.632 17.096C34.8453 17.6507 35.0587 18.152 35.272 18.6C35.5067 19.048 35.7093 19.3253 35.88 19.432C35.9227 19.432 35.9547 19.432 35.976 19.432C35.9973 19.432 36.04 19.432 36.104 19.432C36.3173 19.3253 36.52 19.0587 36.712 18.632C36.9253 18.2053 37.128 17.7253 37.32 17.192C37.512 16.6373 37.672 16.1147 37.8 15.624C37.9493 15.112 38.0453 14.7173 38.088 14.44C38.1307 14.248 38.1947 14.1093 38.28 14.024C38.3653 13.9387 38.5573 13.896 38.856 13.896H41.704C41.768 13.896 41.8533 13.9173 41.96 13.96C42.088 14.0027 42.1413 14.1307 42.12 14.344C42.0773 14.5573 41.992 14.8987 41.864 15.368C41.7573 15.816 41.5973 16.3387 41.384 16.936C41.192 17.512 40.9253 18.1413 40.584 18.824C40.2427 19.4853 39.8267 20.1573 39.336 20.84C39.1867 20.9893 39.1973 21.1813 39.368 21.416C39.9013 22.1627 40.3387 22.9093 40.68 23.656C41.0427 24.3813 41.32 25.064 41.512 25.704C41.704 26.3227 41.8427 26.8453 41.928 27.272C42.0347 27.6773 42.0987 27.9333 42.12 28.04C42.184 28.3173 42.1947 28.552 42.152 28.744C42.1307 28.9147 42.0133 29 41.8 29H38.952C38.6533 29 38.4613 28.9573 38.376 28.872C38.2907 28.7867 38.2267 28.648 38.184 28.456C38.0987 28.1573 37.9813 27.752 37.832 27.24C37.704 26.728 37.544 26.1947 37.352 25.64C37.16 25.0853 36.9573 24.5947 36.744 24.168C36.5307 23.72 36.3173 23.4213 36.104 23.272C35.976 23.272 35.912 23.272 35.912 23.272C35.9333 23.272 35.9547 23.272 35.976 23.272C35.9973 23.272 35.944 23.272 35.816 23.272C35.5173 23.7627 35.24 24.3067 34.984 24.904C34.728 25.5013 34.504 26.0773 34.312 26.632C34.1413 27.1867 34.0027 27.6453 33.896 28.008C33.7893 28.3707 33.736 28.552 33.736 28.552C33.672 28.744 33.608 28.872 33.544 28.936C33.48 28.9787 33.352 29 33.16 29H29.8ZM65.654 22.856C65.654 24.3493 65.3553 25.544 64.758 26.44C64.1607 27.336 63.3607 27.9867 62.358 28.392C61.3553 28.7973 60.246 29 59.03 29H52.246C51.9687 29 51.83 28.872 51.83 28.616V7.88C51.83 7.60267 51.9687 7.464 52.246 7.464H57.654C58.6993 7.464 59.6807 7.51733 60.598 7.624C61.5153 7.70933 62.326 7.93333 63.03 8.296C63.7553 8.63733 64.31 9.18133 64.694 9.928C65.0993 10.6533 65.302 11.656 65.302 12.936C65.302 13.4267 65.2167 13.992 65.046 14.632C64.8967 15.2507 64.6513 15.8373 64.31 16.392C63.9687 16.9467 63.5313 17.352 62.998 17.608C62.87 17.6507 62.8167 17.7253 62.838 17.832C62.8593 17.9387 62.9127 18.0133 62.998 18.056C63.7233 18.3973 64.342 19.016 64.854 19.912C65.3873 20.808 65.654 21.7893 65.654 22.856ZM61.142 22.792C61.142 21.8533 61.0033 21.16 60.726 20.712C60.47 20.2427 60.086 19.944 59.574 19.816C59.062 19.6667 58.4433 19.592 57.718 19.592H56.278C56.1287 19.592 56.054 19.6453 56.054 19.752V25.864C56.054 25.928 56.0647 25.9813 56.086 26.024C56.1073 26.0453 56.182 26.056 56.31 26.056H58.198C58.4967 26.056 58.8167 26.024 59.158 25.96C59.4993 25.896 59.8193 25.768 60.118 25.576C60.4167 25.3627 60.662 25.0427 60.854 24.616C61.046 24.168 61.142 23.56 61.142 22.792ZM60.854 13.128C60.854 12.3173 60.694 11.72 60.374 11.336C60.0753 10.952 59.6273 10.7067 59.03 10.6C58.4327 10.472 57.718 10.408 56.886 10.408H56.278C56.1287 10.408 56.054 10.4933 56.054 10.664V16.072C56.054 16.2213 56.1393 16.296 56.31 16.296H58.038C58.678 16.296 59.2007 16.1893 59.606 15.976C60.0327 15.7627 60.342 15.432 60.534 14.984C60.7473 14.5147 60.854 13.896 60.854 13.128ZM72.664 9.768C72.664 10.408 72.5253 10.8987 72.248 11.24C71.9707 11.56 71.3947 11.72 70.52 11.72C69.688 11.72 69.112 11.56 68.792 11.24C68.4933 10.8987 68.344 10.408 68.344 9.768C68.344 9.21333 68.4933 8.76533 68.792 8.424C69.112 8.06133 69.688 7.88 70.52 7.88C71.4373 7.88 72.024 8.06133 72.28 8.424C72.536 8.76533 72.664 9.21333 72.664 9.768ZM72.568 28.616C72.568 28.872 72.4293 29 72.152 29H68.856C68.6 29 68.472 28.872 68.472 28.616V14.28C68.472 14.024 68.6 13.896 68.856 13.896H72.152C72.4293 13.896 72.568 14.024 72.568 14.28V28.616ZM80.3733 13.768C81.9946 13.768 83.3279 14.0027 84.3733 14.472C84.5866 14.5573 84.7039 14.6427 84.7253 14.728C84.7679 14.8133 84.7786 14.9307 84.7573 15.08L84.1813 17.064C84.1386 17.2347 84.0853 17.3413 84.0213 17.384C83.9573 17.4053 83.8293 17.384 83.6373 17.32C83.2746 17.2133 82.8693 17.1387 82.4213 17.096C81.9733 17.032 81.6319 17 81.3973 17C81.0559 17 80.7679 17.0213 80.5333 17.064C80.2986 17.0853 80.1173 17.1173 79.9893 17.16C79.8613 17.2027 79.7546 17.2453 79.6693 17.288C79.5839 17.352 79.4879 17.4267 79.3813 17.512C79.2959 17.5973 79.2533 17.7893 79.2533 18.088V28.328C79.2533 28.6267 79.2106 28.8187 79.1253 28.904C79.0399 28.968 78.8906 29 78.6773 29H75.5733C75.4666 29 75.3706 28.968 75.2853 28.904C75.1999 28.84 75.1573 28.6907 75.1573 28.456V15.656C75.1573 15.3147 75.1893 15.1013 75.2533 15.016C75.3386 14.9093 75.4986 14.8027 75.7333 14.696C76.3733 14.3973 77.1306 14.1733 78.0052 14.024C78.9013 13.8533 79.6906 13.768 80.3733 13.768ZM85.7778 21.672C85.8204 20.0507 86.0338 18.728 86.4178 17.704C86.8231 16.68 87.3351 15.88 87.9538 15.304C88.5938 14.728 89.2978 14.3333 90.0658 14.12C90.8338 13.9067 91.6124 13.8 92.4018 13.8C92.7004 13.8 93.0418 13.832 93.4258 13.896C93.8098 13.96 94.1084 14.0133 94.3218 14.056C94.4711 14.0987 94.5884 14.1093 94.6738 14.088C94.7804 14.0667 94.8338 13.9707 94.8338 13.8C94.8338 13.416 94.8231 13.0107 94.8018 12.584C94.8018 12.1573 94.7804 11.7307 94.7378 11.304C94.7164 10.856 94.6844 10.4187 94.6418 9.992C94.5991 9.544 94.5564 9.128 94.5138 8.744C94.4924 8.33867 94.4604 7.976 94.4178 7.656C94.3751 7.29333 94.3858 7.08 94.4498 7.016C94.5351 6.952 94.6738 6.92 94.8658 6.92H97.9378C98.0871 6.92 98.2044 6.93067 98.2898 6.952C98.3964 6.97333 98.4604 7.05867 98.4818 7.208C98.5671 8.08267 98.6418 9.10667 98.7058 10.28C98.7698 11.432 98.8231 12.68 98.8658 14.024C98.9084 15.3467 98.9298 16.68 98.9298 18.024C98.9511 19.368 98.9404 20.6587 98.8978 21.896C98.8764 23.1333 98.8231 24.232 98.7378 25.192C98.6738 26.152 98.5778 26.888 98.4498 27.4C98.3858 27.656 98.2898 27.848 98.1618 27.976C98.0551 28.104 97.7671 28.2533 97.2978 28.424C96.8924 28.5947 96.2418 28.776 95.3458 28.968C94.4498 29.1387 93.4684 29.224 92.4018 29.224C91.5698 29.2027 90.7911 29.1067 90.0658 28.936C89.3618 28.744 88.7431 28.4453 88.2098 28.04C87.3991 27.464 86.7911 26.6533 86.3858 25.608C85.9804 24.5413 85.7778 23.2293 85.7778 21.672ZM89.9698 21.704C89.9484 23.176 90.1191 24.2213 90.4818 24.84C90.8658 25.4373 91.3458 25.7787 91.9218 25.864C92.1778 25.9493 92.4444 26.0027 92.7218 26.024C93.0204 26.024 93.3084 26.0027 93.5858 25.96C93.8844 25.896 94.1404 25.8213 94.3538 25.736C94.4178 25.6933 94.4604 25.6507 94.4818 25.608C94.5244 25.544 94.5458 25.4587 94.5458 25.352C94.5671 24.8827 94.5884 24.392 94.6098 23.88C94.6524 23.368 94.6738 22.856 94.6738 22.344C94.6951 21.832 94.7164 21.32 94.7378 20.808C94.7591 20.296 94.7698 19.8053 94.7698 19.336C94.7911 18.8667 94.7911 18.4293 94.7698 18.024C94.7698 17.8747 94.7484 17.7787 94.7058 17.736C94.6844 17.672 94.6311 17.6293 94.5458 17.608C94.2684 17.5013 93.9378 17.416 93.5538 17.352C93.1911 17.2667 92.8818 17.224 92.6258 17.224C92.3698 17.224 92.0818 17.2773 91.7618 17.384C91.4631 17.4907 91.1751 17.6933 90.8978 17.992C90.6418 18.2907 90.4284 18.7387 90.2578 19.336C90.0871 19.912 89.9911 20.7013 89.9698 21.704Z" fill="white"/>
<circle cx="105" cy="26" r="3" fill="#FF3300"/>
</svg>
