<svg width="78" height="78" viewBox="0 0 78 78" fill="none" xmlns="http://www.w3.org/2000/svg">
<path d="M67.5058 56.0623C67.9648 55.2379 68.25 54.3092 68.25 53.4751V24.5244C68.25 23.6904 67.9651 22.7618 67.5058 21.9375L39 39L67.5058 56.0623Z" fill="#7F3A86"/>
<path d="M41.5338 72.4993L65.7177 58.024C66.4143 57.6069 67.0476 56.8869 67.5066 56.0625L39.0007 39L10.4951 56.0625C10.9541 56.8869 11.5874 57.6071 12.2839 58.024L36.4677 72.4993C37.8607 73.3334 40.1408 73.3334 41.5338 72.4993Z" fill="#662579"/>
<path d="M67.5058 21.9374C67.0468 21.1129 66.4133 20.3928 65.7169 19.9758L41.533 5.50051C40.14 4.6665 37.86 4.6665 36.4669 5.50051L12.2831 19.9758C10.8898 20.8096 9.75 22.8567 9.75 24.5244V53.4753C9.75 54.3092 10.035 55.2381 10.4942 56.0625L39 39L67.5058 21.9374Z" fill="#9A5196"/>
<path d="M39.0938 58.5C28.2899 58.5 19.5 49.7523 19.5 39C19.5 28.2477 28.2899 19.5 39.0938 19.5C45.9366 19.5 52.3268 23.097 55.8651 28.9131L47.474 33.9458C45.7012 31.044 42.5098 29.25 39.0938 29.25C33.6916 29.25 29.297 33.6238 29.297 39C29.297 44.3762 33.6916 48.75 39.0938 48.75C42.5007 48.75 45.6839 46.966 47.4598 44.0778L55.8687 49.0813C52.3312 54.9008 45.9388 58.5 39.0938 58.5Z" fill="white"/>
<path fill-rule="evenodd" clip-rule="evenodd" d="M60.9377 31.6875V34.1187H56.0623V31.6875H53.6252V34.1187H51.1875V36.5625H53.6252V41.4248H51.1875V43.875H53.6252V46.3125H56.0623L56.0625 43.875H60.9377V46.3125H63.3748V43.875H65.8125V41.4375H63.3748V36.5625H65.8125V34.1187H63.3748V31.6875H60.9377ZM60.9377 41.4375V36.5625H56.0623V41.4248L60.9377 41.4375Z" fill="white"/>
</svg>
