<svg width="455" height="441" viewBox="0 0 455 441" fill="none" xmlns="http://www.w3.org/2000/svg">
<path d="M106.453 162.439C106.453 162.439 125.672 204.264 110.18 223.924C94.688 243.584 82.0956 268.437 108.274 282.355C134.453 296.273 183.172 295.61 183.172 295.61L199.464 263.281L184.126 196.861L140.255 149.806L106.453 162.439Z" fill="#FF3300"/>
<path d="M448.875 198.977C446.169 198.468 445.323 208.954 445.323 208.954C445.323 208.954 441.603 187.645 437.036 187.174C432.469 186.703 433.823 197.623 433.823 197.623C431.962 192.38 427.396 184.938 424.351 187.813C421.307 190.689 424.351 199.314 424.351 199.314C424.351 199.314 421.139 192.38 417.417 193.394C413.696 194.409 414.373 201.006 415.557 209.803C416.742 218.6 412.63 240.416 412.63 240.416C412.63 240.416 400.335 227.562 392.218 230.606C384.1 233.651 401.688 240.416 401.351 252.931C401.274 255.755 401.111 258.958 400.905 262.223L320.046 313.173C298.284 292.688 279.4 275.012 261.724 258.165C254.827 251.592 245.345 242.506 229.912 236.957C219.919 233.426 209.325 231.908 198.743 232.491C197.617 234.94 188.544 255.557 199.426 274.071C202.843 279.789 207.625 284.571 213.343 287.988C242.538 339.202 286.627 373.915 326.673 368.843C357.131 364.987 384.936 338.155 409.019 314.912C420.75 303.589 431.55 291.34 441.316 278.284C443.355 276.397 452.874 266.676 453.78 248.866C454.794 228.912 451.582 199.484 448.875 198.977Z" fill="white"/>
<path d="M318.966 370.384C282.374 370.384 241.436 339.282 212.556 288.75C206.779 285.266 201.954 280.408 198.51 274.607C187.674 256.169 196 235.921 197.779 232.051C197.86 231.875 197.988 231.724 198.148 231.616C198.308 231.507 198.495 231.445 198.689 231.435C209.411 230.839 220.145 232.378 230.268 235.963C245.829 241.559 255.374 250.656 262.344 257.298L262.45 257.404C275.626 269.961 289.705 283.254 304.689 297.283C309.696 301.989 314.857 306.843 320.172 311.845L399.88 261.618C400.085 258.274 400.223 255.344 400.29 252.904C400.451 246.948 396.254 242.383 392.879 238.719C390.403 236.025 388.614 234.079 389.083 232.116C389.34 231.036 390.248 230.22 391.841 229.62C398.875 226.982 408.336 234.894 411.935 238.265C412.897 232.731 415.445 216.952 414.503 209.95C413.378 201.586 412.315 193.696 417.134 192.383C419.015 191.868 420.707 192.806 422.054 194.129C421.749 191.525 421.918 188.659 423.62 187.052C424.006 186.664 424.487 186.383 425.015 186.237C425.543 186.09 426.101 186.085 426.632 186.219C428.822 186.749 430.985 189.501 432.629 192.465C432.781 190.411 433.247 188.283 434.401 187.103C434.75 186.74 435.18 186.463 435.655 186.294C436.13 186.126 436.638 186.07 437.139 186.132C440.833 186.514 443.625 195.952 445.189 202.913C445.665 200.973 446.361 199.143 447.362 198.379C447.598 198.188 447.872 198.051 448.166 197.977C448.46 197.903 448.767 197.893 449.065 197.948C449.92 198.108 451.923 198.484 453.771 216.533C454.895 227.295 455.249 238.123 454.829 248.935C453.91 266.994 444.23 277.015 442.099 279.009C432.312 292.08 421.493 304.345 409.747 315.686C385.306 339.272 357.606 366.004 326.799 369.906C324.2 370.229 321.584 370.388 318.966 370.384ZM199.447 233.519C197.329 238.357 190.496 256.783 200.342 273.535C203.657 279.112 208.315 283.771 213.893 287.085C214.046 287.179 214.173 287.31 214.262 287.466C244.803 341.032 288.877 372.568 326.539 367.794C356.649 363.983 384.081 337.508 408.285 314.151C419.972 302.867 430.734 290.662 440.467 277.654C440.505 277.603 440.548 277.555 440.595 277.511C442.465 275.781 451.833 266.269 452.721 248.816C453.76 228.394 450.575 202.956 448.586 200.082C447.744 200.717 446.718 204.823 446.377 209.041C446.356 209.298 446.243 209.538 446.057 209.717C445.872 209.896 445.628 210.001 445.37 210.013C445.114 210.02 444.864 209.936 444.664 209.775C444.464 209.615 444.328 209.389 444.279 209.138C442.556 199.268 439.254 188.468 436.926 188.228C436.742 188.199 436.554 188.215 436.379 188.276C436.203 188.336 436.045 188.439 435.918 188.575C434.53 189.991 434.542 194.797 434.872 197.495C434.904 197.754 434.84 198.015 434.691 198.23C434.542 198.444 434.319 198.595 434.065 198.655C433.811 198.715 433.544 198.679 433.315 198.554C433.086 198.43 432.911 198.224 432.824 197.979C431.308 193.703 428.26 188.782 426.139 188.271C425.951 188.22 425.752 188.223 425.565 188.279C425.378 188.335 425.21 188.442 425.081 188.589C423.009 190.546 424.623 196.897 425.353 198.963C425.447 199.221 425.438 199.504 425.327 199.755C425.216 200.006 425.012 200.204 424.758 200.307C424.504 200.41 424.22 200.411 423.966 200.309C423.711 200.208 423.506 200.011 423.393 199.761C422.652 198.173 420.022 193.781 417.697 194.417C414.892 195.184 415.509 201.492 416.609 209.662C417.802 218.523 413.841 239.714 413.672 240.611C413.636 240.802 413.548 240.98 413.418 241.124C413.287 241.269 413.12 241.374 412.933 241.43C412.747 241.485 412.549 241.488 412.36 241.438C412.172 241.389 412.002 241.288 411.867 241.147C411.748 241.022 399.961 228.827 392.591 231.597C391.753 231.915 391.226 232.278 391.15 232.602C390.938 233.469 392.803 235.493 394.445 237.279C397.885 241.02 402.597 246.145 402.411 252.958C402.34 255.555 402.19 258.694 401.964 262.289C401.953 262.456 401.903 262.619 401.817 262.763C401.732 262.907 401.613 263.029 401.471 263.118L320.611 314.071C320.413 314.196 320.178 314.251 319.945 314.229C319.712 314.206 319.492 314.107 319.322 313.946C313.785 308.734 308.426 303.693 303.244 298.824C288.295 284.771 274.212 271.475 260.996 258.933L260.891 258.827C254.057 252.316 244.7 243.397 229.555 237.952C219.902 234.532 209.676 233.026 199.447 233.519Z" fill="#090817"/>
<path d="M437.737 278.196C435.558 278.215 433.4 277.765 431.41 276.876C431.159 276.751 430.968 276.531 430.879 276.264C430.79 275.998 430.81 275.707 430.936 275.456C431.061 275.205 431.281 275.013 431.547 274.924C431.814 274.835 432.105 274.856 432.356 274.981C434.062 275.7 435.896 276.068 437.747 276.063C439.599 276.059 441.431 275.683 443.134 274.957C443.391 274.848 443.681 274.845 443.94 274.949C444.199 275.053 444.407 275.256 444.518 275.512C444.628 275.768 444.633 276.058 444.531 276.318C444.429 276.578 444.229 276.788 443.973 276.9C442.005 277.756 439.883 278.197 437.737 278.196Z" fill="#080717"/>
<path d="M426.98 221.683H426.955C426.674 221.677 426.408 221.559 426.214 221.356C426.02 221.153 425.915 220.881 425.921 220.6C426.087 213.53 423.342 199.662 423.314 199.522C423.283 199.384 423.28 199.242 423.305 199.103C423.33 198.964 423.383 198.831 423.46 198.713C423.537 198.594 423.637 198.493 423.753 198.413C423.87 198.334 424.002 198.279 424.14 198.252C424.279 198.224 424.422 198.225 424.56 198.253C424.698 198.281 424.829 198.337 424.946 198.417C425.062 198.497 425.162 198.599 425.238 198.718C425.314 198.837 425.366 198.97 425.39 199.109C425.505 199.686 428.208 213.344 428.037 220.65C428.03 220.926 427.916 221.188 427.718 221.381C427.521 221.574 427.256 221.683 426.98 221.683Z" fill="#080717"/>
<path d="M436.621 219.992H436.561C436.422 219.984 436.286 219.949 436.16 219.889C436.035 219.828 435.923 219.744 435.83 219.64C435.738 219.536 435.666 219.415 435.621 219.283C435.575 219.152 435.555 219.013 435.563 218.874C435.994 211.33 434.89 203.776 432.319 196.67C432.269 196.539 432.246 196.399 432.251 196.259C432.256 196.119 432.289 195.981 432.348 195.854C432.407 195.726 432.49 195.612 432.593 195.517C432.697 195.422 432.818 195.349 432.95 195.301C433.082 195.254 433.222 195.233 433.362 195.24C433.502 195.247 433.639 195.281 433.766 195.342C433.893 195.402 434.006 195.487 434.099 195.592C434.193 195.697 434.264 195.819 434.31 195.952C436.978 203.326 438.123 211.165 437.676 218.995C437.661 219.264 437.543 219.517 437.347 219.703C437.15 219.888 436.891 219.992 436.621 219.992Z" fill="#080717"/>
<path d="M446.175 221.517C445.903 221.518 445.641 221.413 445.444 221.226C445.247 221.038 445.13 220.782 445.116 220.511C444.993 218.005 444.852 215.473 444.693 212.914C444.562 210.812 444.421 208.73 444.27 206.668C444.256 206.527 444.27 206.385 444.312 206.25C444.354 206.115 444.422 205.99 444.513 205.882C444.604 205.774 444.716 205.685 444.841 205.621C444.967 205.556 445.105 205.518 445.246 205.508C445.387 205.497 445.528 205.515 445.662 205.561C445.796 205.606 445.919 205.678 446.025 205.771C446.131 205.865 446.217 205.979 446.278 206.106C446.339 206.234 446.374 206.372 446.38 206.513C446.532 208.584 446.673 210.674 446.804 212.783C446.964 215.349 447.105 217.89 447.227 220.405C447.234 220.544 447.214 220.683 447.167 220.814C447.12 220.945 447.048 221.065 446.954 221.168C446.861 221.271 446.748 221.355 446.622 221.414C446.496 221.474 446.36 221.508 446.221 221.514L446.175 221.517Z" fill="#080717"/>
<path d="M447.95 233.442C447.789 233.442 447.631 233.406 447.486 233.336C437.808 228.584 423.237 232.096 423.091 232.132C422.955 232.169 422.812 232.179 422.673 232.16C422.533 232.141 422.398 232.095 422.276 232.023C422.155 231.952 422.049 231.857 421.964 231.744C421.88 231.631 421.819 231.502 421.785 231.365C421.751 231.228 421.745 231.086 421.767 230.946C421.789 230.807 421.839 230.673 421.913 230.553C421.987 230.433 422.085 230.33 422.2 230.248C422.315 230.166 422.445 230.108 422.582 230.077C423.207 229.923 438.046 226.338 448.413 231.436C448.629 231.54 448.803 231.715 448.907 231.932C449.01 232.149 449.037 232.394 448.983 232.628C448.928 232.862 448.796 233.071 448.607 233.22C448.419 233.368 448.185 233.449 447.945 233.447L447.95 233.442Z" fill="#080717"/>
<path d="M420.806 255.678C420.561 255.678 420.323 255.593 420.133 255.436C419.944 255.28 419.815 255.063 419.768 254.822C418.702 249.572 415.967 244.808 411.971 241.242C411.751 241.067 411.609 240.812 411.577 240.533C411.545 240.255 411.625 239.974 411.799 239.754C411.974 239.534 412.229 239.393 412.508 239.36C412.786 239.328 413.067 239.408 413.287 239.583C417.702 243.445 420.712 248.662 421.846 254.417C421.899 254.693 421.841 254.978 421.684 255.211C421.527 255.444 421.284 255.605 421.008 255.658C420.942 255.672 420.874 255.678 420.806 255.678Z" fill="#080717"/>
<path d="M310.087 93.7763C310.087 93.7763 319.727 105.9 310.087 125.782H318.459C318.459 125.782 324.04 114.455 321.757 104.312C319.473 94.169 316.197 90.8672 316.197 90.8672L310.087 93.7763Z" fill="#080717"/>
<path d="M304.357 194.69C304.357 194.69 300.425 206.369 309.304 208.981C318.183 211.594 312.094 220.548 312.094 220.548H319.706C319.706 220.548 322.882 211.88 319.706 207.617C316.53 203.354 310.953 203.861 310.573 200.182C310.193 196.503 311.714 194.686 311.714 194.686L304.357 194.69Z" fill="#080717"/>
<path d="M382.824 132.219C382.824 132.219 386.239 142.363 378.528 144.636C370.817 146.909 376.103 154.68 376.103 154.68H369.493C369.493 154.68 366.741 147.152 369.493 143.45C372.246 139.748 377.095 140.189 377.426 136.993C377.714 135.333 377.36 133.626 376.434 132.218L382.824 132.219Z" fill="#080717"/>
<path d="M48.9181 2.91017C48.9181 2.91017 39.2782 15.0336 48.9181 34.9147H40.5465C40.5465 34.9147 34.9654 23.5926 37.2478 13.4446C39.5302 3.29657 42.8088 0 42.8088 0L48.9181 2.91017Z" fill="#080717"/>
<path d="M77.1825 115.147C77.1825 115.147 81.1142 126.826 72.2355 129.438C63.3568 132.051 69.4471 141.008 69.4471 141.008H61.8355C61.8355 141.008 58.6596 132.341 61.8355 128.078C65.0114 123.815 70.5883 124.322 70.9694 120.643C71.3505 116.965 69.8271 115.147 69.8271 115.147H77.1825Z" fill="#080717"/>
<path d="M13.9972 63.3087C13.9972 63.3087 10.582 73.4525 18.2941 75.7253C26.0062 77.9982 20.7173 85.7696 20.7173 85.7696H27.3274C27.3274 85.7696 30.0798 78.2417 27.3274 74.5397C24.575 70.8376 19.7265 71.278 19.3962 68.082C19.1068 66.4225 19.4612 64.715 20.387 63.3076L13.9972 63.3087Z" fill="#080717"/>
<path d="M163.249 233.783C163.249 233.783 133.459 233.975 104.298 256.508C75.1372 279.041 34.0465 359.234 34.0465 359.234L63.2075 392.369C63.2075 392.369 106.286 361.22 137.435 308.863C168.585 256.507 163.249 233.783 163.249 233.783Z" fill="white"/>
<path d="M63.2075 393.43C63.0571 393.43 62.9084 393.398 62.7713 393.336C62.6342 393.274 62.5119 393.184 62.4125 393.071L33.2515 359.936C33.1113 359.776 33.0223 359.578 32.9961 359.368C32.9699 359.157 33.0076 358.943 33.1043 358.754C33.2102 358.553 43.5541 338.409 57.3332 315.774C75.8708 285.319 91.4539 265.098 103.651 255.673C132.764 233.182 162.941 232.73 163.242 232.728H163.249C163.488 232.728 163.719 232.808 163.906 232.956C164.093 233.105 164.224 233.312 164.279 233.544C164.5 234.489 169.361 257.285 138.343 309.409C107.441 361.351 64.2598 392.916 63.8279 393.226C63.6477 393.358 63.4305 393.429 63.2075 393.43ZM35.319 359.077L63.3568 390.942C69.2925 386.456 108.126 356.063 136.526 308.327C163.741 262.581 162.877 239.459 162.345 234.88C157.151 235.149 130.65 237.487 104.946 257.349C77.6747 278.419 39.2761 351.454 35.319 359.077Z" fill="#090817"/>
<path d="M243.968 270.426C241.371 248.857 225.476 237.683 205.484 233.586C202.115 232.875 199.094 231.025 196.929 228.347C194.765 225.668 193.591 222.326 193.604 218.883V183.441H159.516V222.755C159.519 226 158.473 229.159 156.534 231.76C154.594 234.362 151.866 236.266 148.755 237.19C137.846 240.415 128.155 244.87 121.179 250.021C90.0162 273.03 92.9984 436.361 92.9984 436.361H273.423C273.423 436.361 250.3 322.993 243.968 270.426Z" fill="white"/>
<path d="M273.423 437.42H92.9984C92.7209 437.42 92.4545 437.311 92.2565 437.116C92.0585 436.922 91.9448 436.658 91.9398 436.38C91.9334 435.971 91.2305 394.999 94.3482 351.744C98.552 293.413 107.369 258.902 120.552 249.17C127.566 243.991 137.215 239.497 148.457 236.175C151.342 235.305 153.871 233.531 155.672 231.115C157.472 228.699 158.449 225.768 158.459 222.755V183.441C158.459 183.16 158.57 182.891 158.769 182.692C158.967 182.494 159.237 182.382 159.517 182.382H193.605C193.886 182.382 194.155 182.494 194.354 182.692C194.552 182.891 194.664 183.16 194.664 183.441V218.889C194.656 222.086 195.748 225.189 197.756 227.677C199.764 230.165 202.566 231.887 205.693 232.555C235.162 238.589 243.342 256.41 245.015 270.3C251.27 322.223 274.225 435.015 274.456 436.149C274.487 436.303 274.484 436.462 274.447 436.614C274.409 436.767 274.338 436.909 274.239 437.031C274.139 437.152 274.014 437.25 273.872 437.317C273.73 437.385 273.575 437.42 273.418 437.42H273.423ZM94.0433 435.302H272.127C269.568 422.657 248.822 319.571 242.917 270.553C240.037 246.64 220.856 237.818 205.272 234.629C201.667 233.863 198.435 231.881 196.118 229.015C193.801 226.15 192.539 222.574 192.546 218.889V184.499H160.575V222.755C160.564 226.225 159.439 229.601 157.365 232.383C155.291 235.166 152.379 237.209 149.056 238.211C138.046 241.464 128.624 245.845 121.808 250.879C92.7221 272.35 93.8676 421.326 94.0433 435.302Z" fill="#090817"/>
<path d="M151.734 235.133C151.572 244.157 152.786 253.153 155.334 261.811C160.096 277.583 169.026 291.778 181.181 302.9C186.456 296.371 191.122 289.373 195.119 281.992C203.416 266.585 208.749 249.757 210.839 232.383L226.745 234.804C226.745 234.804 247.967 269.85 252.592 306.215C257.217 342.58 280.92 440.918 280.92 440.918H89.055C89.055 440.918 93.0312 302.735 102.475 274.403C111.919 246.071 140.749 236.626 140.749 236.626L151.734 235.133Z" fill="#FF3300"/>
<path d="M153.093 233.783C153.093 233.783 116.24 236.523 102.641 254.188C89.0434 271.854 80.7469 268.769 75.4569 273.739C70.1669 278.709 62.8762 258.929 62.8762 258.929C62.8762 258.929 98.5911 391.498 47.0994 397.567C47.0994 397.567 46.3076 408.111 58.7337 411.589C71.1599 415.068 70.1669 440.914 70.1669 440.914H144.725L153.093 233.783Z" fill="#080717"/>
<path d="M202.136 231.158C202.136 231.158 225.743 229.667 244.634 242.094C263.526 254.52 315.714 304.723 321.431 305.22C327.147 305.716 384.805 270.92 384.805 270.92L425.067 369.331C425.067 369.331 420.097 384.249 400.215 380.77C380.333 377.29 353.491 406.949 321.679 404.298C289.867 401.647 273.423 377.788 273.423 377.788L289.205 440.915H213.32L202.136 231.158Z" fill="#080717"/>
<path d="M158.146 225.69C158.146 225.69 150.524 225.525 148.04 227.679C145.555 229.834 124.076 236.368 124.791 239.894C125.507 243.42 151.022 270.094 180.846 268.769C210.669 267.444 225.39 233.783 225.39 233.783C225.39 233.783 213.485 230.993 207.852 226.85C202.219 222.708 194.563 224.177 194.563 224.177C194.563 224.177 196.42 240.269 193.272 249.55C190.123 258.831 181.011 262.804 181.011 262.804C181.011 262.804 168.253 257.004 162.785 243.584C157.318 230.164 158.146 225.69 158.146 225.69Z" fill="white"/>
<path d="M178.721 269.875C149.503 269.875 124.541 243.989 123.753 240.104C123.16 237.177 129.363 234.453 139.661 230.316C143.071 228.94 146.598 227.527 147.345 226.878C150.062 224.526 157.351 224.618 158.169 224.631C158.321 224.635 158.471 224.671 158.608 224.737C158.745 224.804 158.866 224.899 158.963 225.017C159.06 225.134 159.13 225.271 159.169 225.419C159.208 225.566 159.215 225.72 159.189 225.87C159.174 225.976 158.595 230.495 163.766 243.185C168.443 254.665 178.773 260.476 181.016 261.626C182.805 260.716 189.697 256.794 192.269 249.21C195.303 240.265 193.529 224.457 193.512 224.299C193.48 224.034 193.55 223.767 193.707 223.551C193.864 223.335 194.097 223.186 194.359 223.135C194.692 223.072 202.537 221.628 208.475 225.993C213.866 229.958 225.51 232.72 225.625 232.748C225.776 232.783 225.917 232.852 226.039 232.948C226.161 233.044 226.26 233.166 226.329 233.305C226.399 233.444 226.437 233.597 226.441 233.752C226.444 233.907 226.414 234.061 226.352 234.204C226.201 234.545 211.019 268.483 180.885 269.822C180.167 269.859 179.439 269.875 178.721 269.875ZM157.051 226.751C154.578 226.799 150.258 227.156 148.733 228.478C147.763 229.318 145.09 230.415 140.45 232.28C135.81 234.145 126.128 238.037 125.831 239.733C126.411 242.325 150.975 269.035 180.799 267.711C206.55 266.567 220.985 240.325 223.877 234.496C220.611 233.649 211.926 231.16 207.224 227.704C203.153 224.709 197.861 224.871 195.721 225.09C196.078 228.842 197.034 241.755 194.274 249.889C191.014 259.501 181.824 263.605 181.435 263.774C181.299 263.834 181.152 263.864 181.003 263.863C180.855 263.862 180.708 263.829 180.572 263.768C180.036 263.524 167.368 257.638 161.806 243.984C157.785 234.115 157.108 228.927 157.051 226.751Z" fill="#090817"/>
<path d="M181.046 272.415C185.987 272.415 189.993 268.409 189.993 263.467C189.993 258.526 185.987 254.52 181.046 254.52C176.104 254.52 172.098 258.526 172.098 263.467C172.098 268.409 176.104 272.415 181.046 272.415Z" fill="#080717"/>
<path d="M237.887 150.263C238.044 146.329 237.936 143.931 237.936 143.931C237.936 143.931 237.717 143.8 237.315 143.566C235.229 128.95 227.945 115.575 216.799 105.894C205.653 96.2117 191.392 90.871 176.628 90.8502C161.864 90.8293 147.587 96.1298 136.414 105.78C125.24 115.431 117.919 128.784 115.792 143.394C113.793 143.039 111.74 143.144 109.788 143.701C107.836 144.258 106.036 145.252 104.526 146.609C103.015 147.965 101.833 149.647 101.07 151.528C100.307 153.409 99.9823 155.44 100.121 157.465C100.259 159.49 100.857 161.457 101.869 163.217C102.881 164.977 104.281 166.483 105.962 167.621C107.643 168.759 109.561 169.499 111.571 169.785C113.58 170.071 115.629 169.896 117.561 169.272C119.161 174.822 121.54 180.117 124.627 184.998C133.027 202.148 148.961 219.012 179.17 219.816C218.037 220.85 231.28 191.057 235.744 168.5C237.199 163.202 237.936 157.734 237.936 152.241C237.936 151.577 237.908 150.921 237.887 150.263Z" fill="white"/>
<path d="M181.12 220.901C180.464 220.901 179.805 220.893 179.142 220.875C153.89 220.203 134.721 207.975 123.702 185.517C120.763 180.862 118.457 175.837 116.843 170.574C114.861 171.052 112.801 171.105 110.797 170.729C108.793 170.352 106.892 169.556 105.219 168.391C103.546 167.227 102.138 165.721 101.089 163.973C100.04 162.226 99.373 160.275 99.1324 158.251C98.8919 156.227 99.083 154.174 99.6933 152.229C100.304 150.284 101.319 148.49 102.673 146.966C104.027 145.442 105.688 144.222 107.548 143.387C109.408 142.552 111.423 142.12 113.462 142.12C113.943 142.12 114.425 142.147 114.904 142.2C117.295 127.508 124.856 114.155 136.223 104.545C147.59 94.9353 162.016 89.7017 176.9 89.7874C191.784 89.8731 206.149 95.2724 217.404 105.012C228.66 114.752 236.066 128.192 238.289 142.91L238.485 143.026C238.634 143.117 238.758 143.242 238.847 143.392C238.936 143.542 238.986 143.711 238.994 143.885C238.994 143.985 239.1 146.356 238.946 150.266L238.959 150.666C238.977 151.195 238.995 151.714 238.995 152.243C238.993 157.83 238.243 163.392 236.765 168.78C233.907 183.217 228.655 194.989 221.16 203.695C211.329 215.118 197.859 220.9 181.12 220.901ZM117.561 168.214C117.734 168.214 117.904 168.257 118.057 168.338C118.183 168.405 118.293 168.496 118.383 168.606C118.472 168.716 118.539 168.843 118.578 168.98C120.15 174.434 122.488 179.638 125.522 184.436C125.543 184.469 125.561 184.502 125.579 184.536C136.377 206.588 154.416 218.102 179.197 218.762C199.87 219.3 226.254 211.001 234.705 168.298C236.143 163.068 236.874 157.67 236.878 152.246C236.878 151.741 236.86 151.241 236.843 150.741L236.829 150.299C236.829 150.275 236.829 150.249 236.829 150.224C236.935 147.472 236.917 145.474 236.896 144.55L236.79 144.486C236.651 144.406 236.532 144.295 236.442 144.162C236.352 144.029 236.294 143.877 236.271 143.718C234.222 129.353 227.065 116.208 216.111 106.692C205.157 97.1765 191.14 91.9272 176.63 91.9068C162.12 91.8863 148.089 97.096 137.109 106.581C126.128 116.066 118.933 129.191 116.844 143.549C116.824 143.69 116.776 143.824 116.702 143.946C116.629 144.067 116.532 144.172 116.417 144.255C116.303 144.338 116.172 144.398 116.034 144.429C115.896 144.461 115.753 144.465 115.614 144.441C113.773 144.113 111.883 144.21 110.085 144.722C108.287 145.235 106.63 146.15 105.239 147.399C103.848 148.648 102.759 150.197 102.056 151.929C101.353 153.661 101.054 155.531 101.181 157.396C101.309 159.261 101.859 161.072 102.791 162.693C103.723 164.313 105.012 165.7 106.56 166.748C108.108 167.796 109.874 168.478 111.725 168.741C113.576 169.004 115.462 168.843 117.241 168.268C117.344 168.234 117.452 168.216 117.561 168.214Z" fill="#090817"/>
<path d="M140.256 145.918C140.039 145.918 139.827 145.852 139.649 145.728C139.471 145.603 139.335 145.427 139.261 145.224C139.186 145.02 139.176 144.798 139.232 144.588C139.287 144.378 139.406 144.191 139.572 144.051C143.143 140.952 147.484 138.873 152.138 138.035C156.791 137.196 161.585 137.629 166.013 139.287C166.265 139.404 166.461 139.615 166.558 139.875C166.656 140.136 166.647 140.423 166.534 140.677C166.421 140.931 166.213 141.13 165.955 141.232C165.696 141.334 165.408 141.33 165.152 141.221C161.096 139.675 156.693 139.272 152.423 140.056C148.154 140.84 144.181 142.781 140.938 145.667C140.748 145.829 140.506 145.918 140.256 145.918Z" fill="#080717"/>
<path d="M221.516 147.43C221.37 147.431 221.225 147.4 221.091 147.342C220.957 147.284 220.837 147.198 220.738 147.091C218.141 144.279 214.768 142.3 211.046 141.406C207.324 140.512 203.421 140.742 199.83 142.067C199.566 142.165 199.275 142.153 199.02 142.035C198.765 141.918 198.567 141.704 198.47 141.44C198.373 141.177 198.385 140.885 198.502 140.63C198.62 140.375 198.834 140.178 199.097 140.08C203.081 138.61 207.412 138.355 211.541 139.347C215.67 140.339 219.412 142.534 222.293 145.653C222.433 145.804 222.525 145.993 222.56 146.196C222.594 146.399 222.568 146.607 222.486 146.796C222.403 146.985 222.268 147.145 222.095 147.258C221.923 147.37 221.722 147.43 221.516 147.43Z" fill="#080717"/>
<path d="M182.752 175.006C181.544 175.003 180.336 174.93 179.136 174.788C178.862 174.749 178.614 174.604 178.445 174.384C178.276 174.164 178.201 173.887 178.234 173.612C178.268 173.337 178.407 173.086 178.624 172.913C178.84 172.74 179.115 172.659 179.391 172.686C182.857 173.11 187.072 172.883 187.831 171.791C188.539 170.536 186.284 162.282 183.73 155.364C183.682 155.233 183.66 155.095 183.666 154.956C183.671 154.817 183.704 154.68 183.762 154.554C183.821 154.428 183.903 154.314 184.005 154.22C184.107 154.126 184.227 154.052 184.358 154.004C184.488 153.956 184.627 153.934 184.766 153.94C184.905 153.945 185.041 153.978 185.167 154.036C185.294 154.094 185.407 154.177 185.502 154.279C185.596 154.381 185.669 154.501 185.717 154.631C187.45 159.327 191.294 170.519 189.57 173C188.431 174.636 185.323 175.006 182.752 175.006Z" fill="#080717"/>
<path d="M155.722 175.302C155.972 172.086 152.179 169.169 147.251 168.787C142.323 168.405 138.126 170.703 137.877 173.919C137.627 177.136 141.42 180.053 146.348 180.435C151.276 180.817 155.473 178.519 155.722 175.302Z" fill="#FF3300"/>
<path d="M221.22 178.747C221.47 175.531 217.677 172.613 212.749 172.231C207.821 171.85 203.624 174.147 203.374 177.364C203.125 180.58 206.918 183.498 211.846 183.88C216.774 184.262 220.971 181.964 221.22 178.747Z" fill="#FF3300"/>
<path d="M113.909 163.498C113.755 163.498 113.603 163.465 113.464 163.399C110.48 162.006 108.884 160.224 108.723 158.106C108.569 156.076 109.825 154.225 111.065 152.919H106.455C106.174 152.919 105.905 152.807 105.706 152.609C105.508 152.41 105.396 152.141 105.396 151.86C105.396 151.58 105.508 151.31 105.706 151.112C105.905 150.913 106.174 150.802 106.455 150.802H113.909C114.137 150.802 114.358 150.874 114.54 151.01C114.723 151.145 114.857 151.335 114.923 151.552C114.989 151.77 114.984 152.002 114.907 152.216C114.831 152.43 114.688 152.614 114.499 152.74C113.423 153.462 110.668 155.81 110.833 157.949C110.939 159.244 112.119 160.431 114.357 161.475C114.576 161.577 114.753 161.75 114.859 161.966C114.965 162.183 114.995 162.429 114.943 162.664C114.89 162.899 114.759 163.109 114.571 163.26C114.383 163.411 114.149 163.493 113.908 163.493L113.909 163.498Z" fill="#080717"/>
<path d="M106.639 143.893C106.639 143.893 110.31 142.545 112.42 143.22C114.53 143.894 114.529 151.38 120.494 150.759C126.46 150.139 132.801 134.232 140.255 113.355C147.708 92.4776 160.319 98.1105 160.319 98.1105C160.319 98.1105 177.134 84.7972 184.126 97.4182C191.119 110.039 189.102 123.627 203.364 127.934C217.626 132.242 228.597 136.592 233.202 146.371C237.807 156.151 229.723 195.492 219.161 205.683C208.599 215.875 195.068 216.727 194.128 219.841C193.188 222.956 196.752 229.004 208.35 233.145C219.948 237.286 228.01 234.252 231.839 235.767C235.668 237.282 246.468 241.884 268.95 261.526C270.52 240.797 267.125 219.993 259.048 200.838C245.626 169.522 270.481 159.084 244.136 111.367C217.791 63.649 175.886 68.1227 157.819 82.537C157.819 82.537 137.765 77.5668 121.361 95.4608C104.958 113.355 106.639 143.893 106.639 143.893Z" fill="#FF3300"/>
<path d="M181.267 197.469C174.689 197.469 168.734 191.868 167.98 184.712C167.963 184.556 167.981 184.4 168.032 184.252C168.083 184.105 168.166 183.971 168.275 183.859C168.384 183.746 168.516 183.659 168.663 183.604C168.809 183.549 168.966 183.528 169.122 183.542L192.864 185.53C193.016 185.542 193.164 185.588 193.297 185.663C193.43 185.738 193.546 185.841 193.635 185.965C193.725 186.088 193.786 186.23 193.816 186.38C193.845 186.53 193.842 186.684 193.806 186.833C192.43 192.557 187.719 196.908 182.355 197.419C181.99 197.452 181.627 197.469 181.267 197.469ZM170.287 185.767C171.51 191.553 176.699 195.824 182.154 195.31C184.271 195.019 186.263 194.134 187.898 192.758C189.533 191.382 190.746 189.571 191.395 187.535L170.287 185.767Z" fill="#080717"/>
<path d="M158.849 178.939C169.119 178.939 177.444 170.614 177.444 160.344C177.444 150.075 169.119 141.75 158.849 141.75C148.58 141.75 140.255 150.075 140.255 160.344C140.255 170.614 148.58 178.939 158.849 178.939Z" fill="#080717"/>
<path d="M210.489 178.939C220.759 178.939 229.084 170.614 229.084 160.344C229.084 150.075 220.759 141.75 210.489 141.75C200.22 141.75 191.894 150.075 191.894 160.344C191.894 170.614 200.22 178.939 210.489 178.939Z" fill="#080717"/>
<path d="M195.424 164.027H175.081C174.66 164.027 174.256 163.86 173.958 163.562C173.661 163.264 173.493 162.86 173.493 162.439C173.493 162.018 173.661 161.614 173.958 161.316C174.256 161.018 174.66 160.851 175.081 160.851H195.424C195.845 160.851 196.249 161.018 196.547 161.316C196.845 161.614 197.012 162.018 197.012 162.439C197.012 162.86 196.845 163.264 196.547 163.562C196.249 163.86 195.845 164.027 195.424 164.027Z" fill="#080717"/>
<path d="M111.625 111.94L235.453 98.1284C231.72 86.1384 227.988 74.148 224.256 62.1572L114.405 72.0988C113.479 85.379 112.552 98.6595 111.625 111.94Z" fill="#080717"/>
<path d="M126.19 90.7879L74.0754 77.7424C73.8138 77.6772 73.5777 77.5353 73.3974 77.3349C73.2171 77.1346 73.1008 76.8848 73.0635 76.6179C73.0261 76.3509 73.0695 76.0788 73.1879 75.8367C73.3064 75.5945 73.4945 75.3933 73.7282 75.2589L160.057 25.4948C160.345 25.3288 160.685 25.2749 161.01 25.3435L260.723 46.479C260.979 46.5331 261.213 46.6601 261.398 46.8446C261.583 47.0291 261.711 47.2633 261.765 47.5187C261.82 47.7741 261.799 48.0399 261.706 48.284C261.613 48.528 261.451 48.7398 261.24 48.8937L218.246 80.3149C218.056 80.4535 217.833 80.5404 217.599 80.5668L126.67 90.8207C126.509 90.839 126.347 90.8279 126.19 90.7879Z" fill="#080717"/>
<path d="M56.4555 233.66C57.9324 230.056 58.8677 226.254 59.2313 222.377C59.8294 215.75 58.1726 214.51 57.5745 203.322C57.2686 197.549 57.5533 194.905 56.41 194.54C54.8221 194.031 51.6038 198.328 49.783 202.494C47.1618 208.492 48.2872 212.274 47.0856 226.021C46.8739 228.456 46.6526 230.441 46.5034 231.723H23.4433C20.3521 259.789 7.73002 384.924 43.3254 396.678C51.1126 399.249 58.4013 395.468 59.2313 395.021C94.1925 376.219 62.7184 256.358 56.4555 233.66Z" fill="white"/>
<path d="M49.0007 398.632C46.9603 398.64 44.932 398.32 42.993 397.685C9.11687 386.499 17.3011 277.816 22.39 231.607C22.4186 231.348 22.5418 231.109 22.736 230.935C22.9302 230.761 23.1816 230.665 23.4422 230.665H45.5676C45.7412 229.104 45.9 227.517 46.0387 225.93C46.4537 221.186 46.5902 217.625 46.6993 214.762C46.911 209.222 47.0296 206.171 48.8165 202.07C49.9175 199.55 53.7508 192.57 56.7361 193.533C58.305 194.036 58.3611 195.771 58.4818 199.568C58.5157 200.618 58.5548 201.845 58.6311 203.263C58.7997 206.798 59.1886 210.318 59.7956 213.804C60.3847 216.652 60.5488 219.572 60.2825 222.468C59.9181 226.328 59.0041 230.116 57.5682 233.717C61.3147 247.332 70.2273 281.819 74.3496 315.67C79.8428 360.767 74.9234 387.779 59.7299 395.951C56.4117 397.67 52.7374 398.588 49.0007 398.632ZM24.3918 232.782C20.3944 269.517 10.6296 384.77 43.6589 395.674C50.9634 398.088 57.9578 394.51 58.7316 394.087C92.6226 375.865 61.9308 257.486 55.4351 233.941C55.3731 233.717 55.3865 233.479 55.4732 233.264C56.9082 229.756 57.8192 226.055 58.1769 222.282C58.4272 219.564 58.2695 216.824 57.709 214.153C57.0891 210.59 56.691 206.992 56.517 203.379C56.4408 201.944 56.4005 200.703 56.3667 199.639C56.398 198.271 56.2827 196.904 56.0226 195.561C55.2265 195.757 52.6445 198.599 50.757 202.918C49.1256 206.652 49.0145 209.562 48.8112 214.844C48.7054 217.728 48.5635 221.318 48.1432 226.114C47.9749 228.04 47.7791 229.967 47.5589 231.846C47.5287 232.104 47.4049 232.342 47.2109 232.515C47.0169 232.687 46.7662 232.782 46.5066 232.782H24.3918Z" fill="#090817"/>
<path d="M46.7585 112.443H13.5038C12.7823 112.443 12.1974 113.028 12.1974 113.75V267.262C12.1974 267.983 12.7823 268.568 13.5038 268.568H46.7585C47.48 268.568 48.0649 267.983 48.0649 267.262V113.75C48.0649 113.028 47.48 112.443 46.7585 112.443Z" fill="white"/>
<path d="M46.7575 269.626H13.5038C12.8765 269.626 12.275 269.376 11.8314 268.933C11.3878 268.489 11.1383 267.888 11.1378 267.26V113.749C11.1386 113.121 11.3882 112.52 11.8318 112.077C12.2753 111.633 12.8767 111.384 13.5038 111.384H46.7575C47.3844 111.384 47.9853 111.634 48.4285 112.077C48.8716 112.521 49.1208 113.122 49.1214 113.749V267.26C49.1208 267.887 48.8717 268.488 48.4285 268.932C47.9854 269.376 47.3845 269.625 46.7575 269.626ZM13.5038 113.502C13.438 113.502 13.3749 113.528 13.3283 113.574C13.2817 113.621 13.2553 113.684 13.255 113.75V267.26C13.255 267.326 13.2813 267.39 13.3279 267.436C13.3746 267.483 13.4378 267.509 13.5038 267.509H46.7575C46.8233 267.509 46.8863 267.483 46.9327 267.436C46.9791 267.389 47.0052 267.326 47.0052 267.26V113.749C47.0052 113.683 46.9791 113.62 46.9326 113.573C46.8862 113.527 46.8232 113.501 46.7575 113.501L13.5038 113.502Z" fill="#090817"/>
<path d="M48.0649 171.593H12.1974V180.043H48.0649V171.593Z" fill="#080717"/>
<path d="M6.75294 233.003C5.92192 232.607 4.10637 231.744 3.8777 230.177C3.65962 228.721 4.86858 227.08 6.88739 225.912C6.88739 225.912 -0.401276 220.187 4.63674 216.644C4.63674 216.644 -2.26552 211.873 3.24147 207.337C3.24147 207.337 -1.34346 202.003 2.77673 198.387C6.89691 194.771 22.9108 198.842 25.0619 202.171C27.2131 205.501 19.754 207.328 19.754 207.328C19.754 207.328 29.8109 211.212 20.8983 214.875C20.8983 214.875 31.167 218.349 21.9951 223.91C25.7479 225.342 26.6393 226.626 26.6763 227.582C26.8214 231.363 13.8913 236.404 6.75294 233.003Z" fill="white"/>
<path d="M12.387 235.174C10.2917 235.221 8.2119 234.805 6.29667 233.954C5.35343 233.505 3.14513 232.453 2.8286 230.329C2.59888 228.788 3.47437 227.129 5.15759 225.798C3.81207 224.506 1.73292 222.093 1.80067 219.547C1.834 218.474 2.26001 217.449 2.99798 216.669C1.85043 215.624 0.149211 213.693 0.0518169 211.366C0.0348663 210.588 0.182577 209.816 0.485255 209.099C0.787933 208.382 1.23874 207.738 1.80808 207.208C0.147094 204.818 -1.3678 200.611 2.07486 197.587C4.36573 195.576 8.96548 195.729 12.423 196.211C17.8506 196.968 24.3929 199.188 25.9459 201.593C26.2354 201.997 26.4194 202.466 26.4811 202.959C26.5429 203.452 26.4804 203.953 26.2995 204.415C25.7289 205.847 24.0149 206.863 22.5106 207.504C24.0097 208.413 25.6209 209.789 25.6389 211.527C25.6527 212.77 24.8978 213.856 23.3512 214.827C24.8555 215.666 26.6245 217.05 26.8447 219.009C27.0193 220.606 26.1259 222.177 24.1822 223.697C26.5387 224.848 27.6757 226.091 27.735 227.541C27.789 228.945 26.7579 230.383 24.7549 231.702C21.0139 233.938 16.7448 235.136 12.387 235.174ZM8.40652 198.032C6.08812 198.032 4.33715 198.426 3.47436 199.182C0.179911 202.075 3.88511 206.46 4.04391 206.647C4.13585 206.753 4.20561 206.877 4.2491 207.011C4.2926 207.145 4.30896 207.286 4.29723 207.426C4.2855 207.567 4.24591 207.703 4.18079 207.828C4.11566 207.953 4.0263 208.063 3.91793 208.153C3.39883 208.496 2.96959 208.959 2.66622 209.503C2.36285 210.046 2.19419 210.654 2.17437 211.276C2.2707 213.676 5.21475 215.753 5.24439 215.773C5.38416 215.871 5.49831 216.001 5.57713 216.152C5.65594 216.303 5.6971 216.471 5.6971 216.641C5.6971 216.812 5.65594 216.98 5.57713 217.131C5.49831 217.282 5.38416 217.412 5.24439 217.509C4.86888 217.724 4.55162 218.027 4.32039 218.392C4.08915 218.758 3.95097 219.174 3.91793 219.605C3.85971 221.709 6.51052 224.271 7.53739 225.08C7.67321 225.186 7.78079 225.325 7.85074 225.483C7.92068 225.641 7.95087 225.814 7.93865 225.986C7.92643 226.159 7.87218 226.326 7.78065 226.472C7.68911 226.619 7.56307 226.741 7.41353 226.827C5.779 227.774 4.77648 229.058 4.92045 230.021C5.07078 231.031 6.56662 231.744 7.20392 232.047C11.7094 234.192 19.4533 232.655 23.5841 229.93C25.1096 228.927 25.6315 228.059 25.6145 227.62C25.5923 227.033 24.5284 226.009 21.614 224.895C21.4289 224.825 21.2674 224.703 21.1478 224.546C21.0282 224.388 20.9553 224.199 20.9375 224.002C20.9196 223.805 20.9575 223.606 21.0467 223.429C21.136 223.253 21.2731 223.104 21.4425 223.002C23.6815 221.644 24.8513 220.308 24.7348 219.239C24.557 217.596 21.5812 216.225 20.5543 215.875C20.3501 215.806 20.172 215.676 20.0436 215.503C19.9153 215.329 19.8429 215.121 19.8361 214.906C19.8293 214.69 19.8885 214.478 20.0056 214.297C20.1228 214.116 20.2924 213.975 20.4918 213.893C22.3974 213.111 23.529 212.234 23.5216 211.547C23.5121 210.489 21.1027 208.985 19.3676 208.312C19.1591 208.23 18.9821 208.083 18.8621 207.894C18.742 207.705 18.6852 207.482 18.6997 207.259C18.7141 207.035 18.7992 206.822 18.9426 206.65C19.0861 206.477 19.2804 206.355 19.4978 206.301C21.236 205.872 23.8847 204.762 24.3315 203.637C24.3854 203.487 24.3987 203.326 24.3701 203.17C24.3414 203.014 24.2719 202.868 24.1685 202.747C23.2453 201.318 17.9003 199.118 12.1308 198.313C10.8973 198.134 9.65292 198.04 8.40652 198.032Z" fill="#090817"/>
<path d="M6.88211 226.97C6.74309 226.977 6.60406 226.957 6.47296 226.91C6.34186 226.863 6.22126 226.791 6.11804 226.698C5.90959 226.509 5.78459 226.245 5.77055 225.965C5.75651 225.684 5.85458 225.409 6.04319 225.201C6.23179 224.992 6.49548 224.867 6.77625 224.853L22.8674 223.252C23.1468 223.224 23.4258 223.308 23.6432 223.486C23.8606 223.664 23.9985 223.92 24.0266 224.2C24.0547 224.479 23.9706 224.758 23.793 224.976C23.6153 225.193 23.3585 225.331 23.0791 225.359L6.98797 226.96C6.95621 226.968 6.92128 226.97 6.88211 226.97Z" fill="#080717"/>
<path d="M3.79303 217.02C3.65401 217.024 3.51549 217.001 3.38537 216.952C3.25526 216.903 3.1361 216.829 3.0347 216.734C2.82992 216.541 2.7099 216.276 2.70106 215.995C2.69668 215.856 2.71972 215.717 2.76888 215.587C2.81803 215.457 2.89233 215.338 2.98754 215.236C3.17982 215.032 3.44557 214.912 3.72634 214.903L20.8317 213.816C21.1124 213.798 21.3888 213.892 21.5999 214.078C21.8111 214.264 21.9397 214.526 21.9575 214.807C21.9753 215.088 21.8809 215.364 21.695 215.575C21.5091 215.786 21.2469 215.915 20.9661 215.933L3.86078 217.018C3.83855 217.02 3.81209 217.02 3.79303 217.02Z" fill="#080717"/>
<path d="M3.24146 208.391C2.96069 208.391 2.69143 208.279 2.4929 208.081C2.29436 207.882 2.18283 207.613 2.18283 207.332C2.18283 207.051 2.29436 206.782 2.4929 206.583C2.69143 206.385 2.96069 206.273 3.24146 206.273L19.7561 206.265C20.0368 206.265 20.3061 206.376 20.5046 206.575C20.7032 206.773 20.8147 207.043 20.8147 207.324C20.8147 207.604 20.7032 207.874 20.5046 208.072C20.3061 208.271 20.0368 208.382 19.7561 208.382L3.24146 208.391Z" fill="#080717"/>
<path d="M113.909 88.1074C113.68 88.1073 113.457 88.0326 113.274 87.8948C113.091 87.757 112.957 87.5634 112.893 87.3431C112.83 87.1229 112.839 86.8879 112.92 86.6735C113.002 86.4591 113.15 86.2769 113.344 86.1543C114.867 85.1941 150.848 62.6326 170.501 61.1018C190.11 59.5753 226.547 71.848 228.09 72.3709C228.222 72.4156 228.343 72.4858 228.448 72.5775C228.552 72.6692 228.638 72.7805 228.699 72.9052C228.761 73.0299 228.797 73.1655 228.806 73.3042C228.815 73.443 228.797 73.5821 228.752 73.7138C228.708 73.8454 228.637 73.967 228.546 74.0715C228.454 74.1761 228.343 74.2615 228.218 74.323C228.093 74.3845 227.958 74.4208 227.819 74.4299C227.68 74.439 227.541 74.4207 227.409 74.376C227.037 74.25 189.871 61.7169 170.667 63.2127C151.534 64.7033 114.842 87.7126 114.475 87.9444C114.306 88.0517 114.11 88.1083 113.909 88.1074Z" fill="white"/>
<path d="M66.0595 419.263C65.7944 419.262 65.5393 419.161 65.3447 418.981C65.1501 418.801 65.03 418.555 65.0083 418.291C64.9867 418.027 65.0649 417.764 65.2276 417.555C65.3903 417.345 65.6256 417.205 65.8869 417.16C66.1061 417.12 81.9696 413.735 88.0059 369.702C88.044 369.424 88.191 369.172 88.4147 369.002C88.6383 368.832 88.9203 368.758 89.1985 368.796C89.4767 368.834 89.7285 368.981 89.8983 369.205C90.0682 369.429 90.1422 369.711 90.1042 369.989C83.8032 415.954 66.9403 419.137 66.2257 419.25C66.1708 419.259 66.1152 419.263 66.0595 419.263Z" fill="white"/>
<path d="M273.422 375.928C273.178 375.928 272.942 375.843 272.753 375.689C272.565 375.535 272.435 375.32 272.386 375.081L253.602 283.245C253.553 282.973 253.613 282.693 253.768 282.464C253.923 282.236 254.161 282.077 254.432 282.021C254.703 281.966 254.985 282.019 255.217 282.168C255.449 282.318 255.614 282.553 255.676 282.822L274.46 374.659C274.516 374.934 274.461 375.22 274.306 375.454C274.151 375.688 273.909 375.851 273.634 375.907C273.565 375.922 273.493 375.929 273.422 375.928Z" fill="white"/>
<path d="M313.602 341.426C313.404 341.426 313.209 341.371 313.041 341.266C312.872 341.161 312.736 341.011 312.649 340.833C312.55 340.631 302.895 320.373 320.721 304.431C320.825 304.338 320.946 304.267 321.077 304.221C321.208 304.175 321.347 304.155 321.486 304.163C321.625 304.17 321.761 304.205 321.886 304.266C322.012 304.326 322.124 304.41 322.217 304.514C322.309 304.618 322.381 304.739 322.427 304.87C322.473 305.001 322.492 305.14 322.485 305.279C322.477 305.418 322.442 305.554 322.382 305.679C322.321 305.804 322.237 305.917 322.133 306.009C305.524 320.863 314.174 339.131 314.55 339.901C314.63 340.063 314.666 340.242 314.657 340.422C314.648 340.601 314.593 340.776 314.498 340.928C314.402 341.081 314.27 341.206 314.112 341.294C313.955 341.381 313.778 341.426 313.598 341.426H313.602Z" fill="white"/>
<path d="M273.424 113C273.264 113 273.106 112.964 272.963 112.894C272.819 112.825 272.693 112.724 272.593 112.599C272.494 112.474 272.424 112.328 272.389 112.172C272.354 112.017 272.355 111.855 272.392 111.7C272.591 110.853 277.037 90.7185 258.629 78.7698C251.007 73.8186 246.548 68.4079 245.388 62.686C244.658 59.4791 245.173 56.1145 246.829 53.2727C246.989 53.0471 247.23 52.8929 247.502 52.843C247.774 52.7932 248.054 52.8517 248.284 53.0059C248.513 53.1602 248.673 53.3981 248.729 53.6687C248.786 53.9393 248.734 54.2212 248.585 54.4541C247.256 56.8504 246.861 59.6536 247.475 62.324C248.533 67.4467 252.679 72.381 259.783 76.9934C279.46 89.7668 274.507 111.961 274.455 112.183C274.4 112.416 274.269 112.623 274.081 112.771C273.894 112.919 273.662 113 273.424 113Z" fill="#080717"/>
<path d="M268.469 116.866C268.469 116.866 269.818 104.946 274.027 105.578C278.236 106.21 277.475 112.046 278.87 115.597C280.266 119.149 286.735 119.149 286.735 119.149C286.735 119.149 282.676 129.55 270.114 127.901C268.289 124.529 267.707 120.623 268.469 116.866Z" fill="#080717"/>
<path d="M117.476 136.105C117.22 136.105 116.973 136.012 116.78 135.844C116.587 135.676 116.462 135.444 116.427 135.19C116.392 134.937 116.45 134.679 116.59 134.465C116.731 134.251 116.944 134.095 117.19 134.026C127.194 131.211 128.922 114.812 128.941 114.646C128.955 114.508 128.996 114.374 129.062 114.251C129.127 114.129 129.217 114.02 129.324 113.932C129.432 113.844 129.556 113.778 129.689 113.738C129.822 113.698 129.962 113.685 130.1 113.699C130.239 113.713 130.373 113.754 130.495 113.819C130.618 113.885 130.726 113.974 130.814 114.082C130.902 114.19 130.968 114.314 131.008 114.447C131.048 114.58 131.062 114.72 131.048 114.858C130.976 115.591 129.147 132.864 117.765 136.068C117.671 136.093 117.574 136.106 117.476 136.105Z" fill="white"/>
<path d="M232.976 129.136H232.913C213.195 127.998 201.713 109.657 201.234 108.879C201.106 108.641 201.074 108.363 201.144 108.103C201.214 107.842 201.381 107.618 201.611 107.476C201.841 107.335 202.116 107.286 202.381 107.341C202.645 107.396 202.879 107.549 203.033 107.771C203.139 107.953 214.432 125.948 233.032 127.022C233.312 127.03 233.579 127.149 233.771 127.353C233.964 127.557 234.068 127.83 234.06 128.111C234.052 128.391 233.933 128.657 233.729 128.85C233.525 129.043 233.252 129.147 232.971 129.139L232.976 129.136Z" fill="white"/>
<path d="M237.346 120.119C227.211 120.119 217.426 113.152 216.936 112.799C216.709 112.634 216.556 112.386 216.511 112.109C216.466 111.832 216.533 111.548 216.698 111.32C216.862 111.093 217.11 110.94 217.387 110.895C217.665 110.85 217.948 110.917 218.176 111.082C218.311 111.179 231.787 120.765 242.64 117.195C242.772 117.152 242.911 117.135 243.05 117.145C243.189 117.156 243.324 117.193 243.448 117.256C243.572 117.319 243.683 117.405 243.773 117.51C243.864 117.616 243.933 117.738 243.976 117.87C244.02 118.002 244.037 118.142 244.026 118.28C244.016 118.419 243.978 118.554 243.916 118.678C243.853 118.802 243.767 118.913 243.661 119.004C243.556 119.094 243.434 119.163 243.302 119.207C241.378 119.826 239.367 120.135 237.346 120.119Z" fill="white"/>
<path d="M260.09 242.655C259.94 242.655 259.792 242.623 259.655 242.562C259.518 242.501 259.395 242.411 259.295 242.299C259.195 242.187 259.12 242.056 259.075 241.912C259.029 241.769 259.015 241.618 259.032 241.469C259.05 241.323 260.632 226.693 248.502 207.911C235.811 188.262 245.099 168.481 245.194 168.284C245.323 168.043 245.54 167.861 245.8 167.776C246.06 167.691 246.342 167.71 246.588 167.829C246.834 167.947 247.025 168.157 247.121 168.413C247.216 168.669 247.209 168.952 247.1 169.203C247.01 169.39 238.247 188.136 250.276 206.762C262.854 226.241 261.206 241.102 261.13 241.725C261.099 241.98 260.976 242.215 260.785 242.386C260.594 242.557 260.347 242.652 260.09 242.655Z" fill="white"/>
<path d="M111.625 242.655C111.457 242.655 111.291 242.615 111.141 242.538C110.992 242.461 110.863 242.35 110.765 242.213C110.667 242.076 110.603 241.918 110.578 241.752C110.553 241.586 110.569 241.416 110.622 241.256C110.741 240.905 113.64 232.532 122.061 223.215C129.887 214.556 123.211 198.622 123.141 198.462C123.03 198.204 123.027 197.913 123.132 197.652C123.236 197.391 123.44 197.183 123.699 197.072C123.957 196.962 124.249 196.959 124.509 197.064C124.77 197.168 124.978 197.372 125.089 197.63C125.389 198.334 132.357 214.981 123.632 224.634C118.932 229.677 115.199 235.543 112.622 241.937C112.551 242.146 112.417 242.327 112.238 242.456C112.06 242.584 111.845 242.654 111.625 242.655Z" fill="white"/>
<path d="M100.092 375.928C100.015 375.928 99.9379 375.92 99.8626 375.902C99.5884 375.842 99.3495 375.675 99.1984 375.438C99.0474 375.202 98.9965 374.915 99.057 374.64C105.253 346.663 105.392 290.696 105.393 290.134C105.393 289.854 105.504 289.584 105.703 289.386C105.901 289.187 106.171 289.076 106.452 289.076C106.732 289.076 107.002 289.187 107.2 289.386C107.399 289.584 107.51 289.854 107.51 290.134C107.51 290.699 107.369 346.895 101.124 375.095C101.073 375.33 100.943 375.541 100.755 375.693C100.567 375.844 100.334 375.927 100.092 375.928Z" fill="white"/>
<path d="M173.29 161.403H173.234C172.954 161.388 172.691 161.263 172.503 161.054C172.315 160.846 172.217 160.571 172.232 160.291C172.368 157.744 171.843 155.204 170.709 152.919C169.575 150.634 167.87 148.681 165.759 147.249C165.534 147.088 165.38 146.846 165.331 146.574C165.282 146.302 165.342 146.021 165.497 145.792C165.652 145.563 165.891 145.404 166.162 145.349C166.433 145.294 166.714 145.347 166.947 145.497C169.358 147.134 171.306 149.366 172.602 151.977C173.898 154.587 174.498 157.488 174.343 160.399C174.329 160.669 174.212 160.924 174.017 161.11C173.821 161.297 173.561 161.402 173.29 161.403Z" fill="white"/>
<path d="M225.041 159.783C224.776 159.784 224.52 159.686 224.324 159.507C224.128 159.328 224.006 159.082 223.983 158.818C223.712 155.655 222.399 152.671 220.251 150.334C218.103 147.997 215.24 146.438 212.111 145.902C211.972 145.882 211.838 145.833 211.717 145.76C211.597 145.686 211.492 145.589 211.41 145.475C211.327 145.361 211.268 145.231 211.237 145.093C211.205 144.956 211.201 144.813 211.225 144.674C211.249 144.535 211.301 144.403 211.377 144.284C211.453 144.165 211.552 144.063 211.669 143.983C211.785 143.903 211.916 143.847 212.054 143.819C212.192 143.79 212.335 143.79 212.473 143.817C216.063 144.432 219.348 146.22 221.813 148.901C224.278 151.583 225.785 155.006 226.097 158.635C226.122 158.914 226.035 159.192 225.855 159.408C225.674 159.623 225.416 159.758 225.137 159.783C225.105 159.781 225.072 159.783 225.041 159.783Z" fill="white"/>
<path d="M171.767 164.812C171.24 164.83 170.74 165.051 170.374 165.43C170.007 165.808 169.802 166.315 169.802 166.842C169.802 167.369 170.007 167.876 170.374 168.254C170.74 168.633 171.24 168.854 171.767 168.871C172.294 168.854 172.793 168.633 173.16 168.254C173.527 167.876 173.732 167.369 173.732 166.842C173.732 166.315 173.527 165.808 173.16 165.43C172.793 165.051 172.294 164.83 171.767 164.812Z" fill="white"/>
<path d="M225.041 162.614C224.514 162.631 224.015 162.852 223.648 163.231C223.281 163.61 223.076 164.116 223.076 164.643C223.076 165.17 223.281 165.677 223.648 166.056C224.015 166.434 224.514 166.656 225.041 166.673C225.568 166.656 226.068 166.434 226.434 166.056C226.801 165.677 227.006 165.17 227.006 164.643C227.006 164.116 226.801 163.61 226.434 163.231C226.068 162.852 225.568 162.631 225.041 162.614Z" fill="white"/>
</svg>
