<svg width="77" height="71" viewBox="0 0 77 71" fill="none" xmlns="http://www.w3.org/2000/svg">
<path d="M46.0975 23.4863C39.4187 27.491 32.8729 31.7072 26.4601 36.1348C24.6678 37.375 22.8887 38.6283 21.1227 39.8947C20.8441 40.0978 20.6347 40.3817 20.5228 40.7078C20.4109 41.0339 20.402 41.3865 20.4971 41.7179C20.7273 42.4539 21.5607 43.0906 22.2257 43.3819C23.9818 44.171 26.3186 44.318 27.9545 43.1379C34.2793 38.5971 40.7471 34.2625 47.358 30.134C49.206 28.9778 51.0653 27.8403 52.936 26.7216C53.5174 26.3724 53.752 25.5105 53.5616 24.8984C53.3314 24.1624 52.498 23.5257 51.8352 23.2355C50.854 22.7775 49.7745 22.5701 48.6934 22.6318L47.6825 22.7645C47.1116 22.878 46.5736 23.119 46.1087 23.4694L46.0975 23.4863Z" fill="white"/>
<path d="M60.0451 45.0745L47.3425 47.8342L34.579 50.6086L27.4004 52.1676C26.6745 52.3267 25.7318 52.7634 25.3402 53.4488C25.1718 53.7594 25.1007 54.1134 25.136 54.4649C25.1712 54.8164 25.3113 55.1492 25.5381 55.4201C26.1468 56.1261 26.9607 56.6244 27.8663 56.8453C28.9086 57.133 30.0041 57.17 31.0634 56.9534L43.7661 54.1937L56.5295 51.4193L63.7081 49.8603C64.4329 49.7034 65.3767 49.2645 65.7672 48.5813C65.9362 48.2706 66.0078 47.9162 65.9727 47.5642C65.9377 47.2123 65.7975 46.879 65.5705 46.6078C64.9619 45.9017 64.1478 45.4034 63.2422 45.1826C62.1997 44.8965 61.1045 44.8595 60.0451 45.0745Z" fill="white"/>
<path d="M22.9939 5.02401C20.4318 8.60346 17.9423 12.2331 15.5253 15.9128C13.1083 19.5925 10.7613 23.3408 8.48427 27.1576C7.20733 29.2915 5.95483 31.4423 4.72677 33.6099C4.31954 34.3325 4.46687 35.3141 4.87817 35.9911C5.43065 36.796 6.2435 37.386 7.17994 37.6618C9.01876 38.1939 11.4404 37.9501 12.4781 36.1181C14.6478 32.2873 16.8956 28.5028 19.2216 24.7647C21.5477 21.0266 23.962 17.3221 26.4645 13.6512C27.8632 11.5928 29.2886 9.55243 30.7407 7.53C31.2033 6.88268 30.9599 5.7549 30.5893 5.14875C30.037 4.34375 29.2241 3.75372 28.2875 3.47806C27.2701 3.18293 26.1067 3.06827 25.085 3.42626L24.1996 3.80422C23.6869 4.08453 23.2666 4.50745 22.9894 5.02177L22.9939 5.02401Z" fill="white"/>
</svg>
