<svg width="77" height="71" viewBox="0 0 77 71" fill="none" xmlns="http://www.w3.org/2000/svg">
<path d="M30.251 23.4863C36.9297 27.491 43.4755 31.7072 49.8884 36.1348C51.6806 37.375 53.4598 38.6283 55.2257 39.8947C55.5043 40.0978 55.7137 40.3817 55.8256 40.7078C55.9375 41.0339 55.9465 41.3865 55.8513 41.7179C55.6212 42.4539 54.7877 43.0906 54.1227 43.3819C52.3667 44.171 50.0299 44.318 48.394 43.1379C42.0692 38.5971 35.6014 34.2625 28.9905 30.134C27.1424 28.9778 25.2831 27.8403 23.4125 26.7216C22.8311 26.3724 22.5964 25.5105 22.7869 24.8984C23.017 24.1624 23.8505 23.5257 24.5132 23.2355C25.4945 22.7775 26.574 22.5701 27.655 22.6318L28.6659 22.7645C29.2369 22.878 29.7749 23.119 30.2398 23.4694L30.251 23.4863Z" fill="white"/>
<path d="M16.3034 45.0745L29.006 47.8342L41.7695 50.6086L48.9481 52.1676C49.674 52.3267 50.6167 52.7634 51.0083 53.4488C51.1766 53.7594 51.2478 54.1134 51.2125 54.4649C51.1773 54.8164 51.0372 55.1492 50.8104 55.4201C50.2017 56.1261 49.3878 56.6244 48.4822 56.8453C47.4399 57.133 46.3444 57.17 45.2851 56.9534L32.5824 54.1937L19.819 51.4193L12.6404 49.8603C11.9156 49.7034 10.9718 49.2645 10.5813 48.5813C10.4123 48.2706 10.3407 47.9162 10.3758 47.5642C10.4108 47.2123 10.551 46.879 10.778 46.6078C11.3866 45.9017 12.2007 45.4034 13.1063 45.1826C14.1488 44.8965 15.2439 44.8595 16.3034 45.0745Z" fill="white"/>
<path d="M53.3546 5.02401C55.9167 8.60346 58.4062 12.2331 60.8232 15.9128C63.2401 19.5925 65.5872 23.3408 67.8642 27.1576C69.1411 29.2915 70.3936 31.4423 71.6217 33.6099C72.0289 34.3325 71.8816 35.3141 71.4703 35.9911C70.9178 36.796 70.105 37.386 69.1685 37.6618C67.3297 38.1939 64.9081 37.9501 63.8704 36.1181C61.7007 32.2873 59.4529 28.5028 57.1268 24.7647C54.8008 21.0266 52.3865 17.3221 49.8839 13.6512C48.4852 11.5928 47.0599 9.55243 45.6078 7.53C45.1452 6.88268 45.3886 5.7549 45.7592 5.14875C46.3115 4.34375 47.1244 3.75372 48.0609 3.47806C49.0784 3.18293 50.2418 3.06827 51.2635 3.42626L52.1489 3.80422C52.6615 4.08453 53.0819 4.50745 53.3591 5.02177L53.3546 5.02401Z" fill="white"/>
</svg>
