<svg width="118" height="30" viewBox="0 0 118 30" fill="none" xmlns="http://www.w3.org/2000/svg">
<g clip-path="url(#clip0_89_315)">
<path fill-rule="evenodd" clip-rule="evenodd" d="M15.2277 0C6.81437 0 0 6.88228 0 15.3794C0 22.1848 4.35892 27.9328 10.4119 29.9706C11.1733 30.1052 11.4588 29.6438 11.4588 29.2401C11.4588 28.8748 11.4398 27.6637 11.4398 26.3756C7.61383 27.087 6.62403 25.4337 6.31948 24.5686C6.14816 24.1264 5.40582 22.7615 4.75864 22.3962C4.22567 22.1079 3.46429 21.3966 4.73961 21.3774C5.93878 21.3581 6.79534 22.4924 7.08086 22.9538C8.45135 25.2799 10.6403 24.6263 11.5159 24.2225C11.6491 23.2229 12.0489 22.55 12.4867 22.1656C9.0985 21.7811 5.55809 20.4546 5.55809 14.572C5.55809 12.8995 6.14816 11.5153 7.11892 10.4388C6.96665 10.0543 6.43368 8.47789 7.2712 6.36323C7.2712 6.36323 8.54652 5.95952 11.4588 7.93961C12.677 7.59358 13.9713 7.42056 15.2657 7.42056C16.56 7.42056 17.8544 7.59358 19.0727 7.93961C21.985 5.9403 23.2602 6.36323 23.2602 6.36323C24.0978 8.47789 23.5648 10.0543 23.4125 10.4388C24.3833 11.5153 24.9733 12.8802 24.9733 14.572C24.9733 20.4739 21.4139 21.7811 18.0258 22.1656C18.5777 22.6462 19.0536 23.569 19.0536 25.0107C19.0536 27.0678 19.0346 28.721 19.0346 29.2401C19.0346 29.6438 19.3201 30.1244 20.0815 29.9706C23.1044 28.9399 25.7312 26.9778 27.5922 24.3603C29.4531 21.7428 30.4545 18.6018 30.4553 15.3794C30.4553 6.88228 23.641 0 15.2277 0Z" fill="#CFCFCF"/>
<path d="M70.9887 22.8027H70.9533C70.9692 22.8027 70.9799 22.8206 70.9959 22.8224H71.0065L70.9887 22.8044V22.8027ZM70.9959 22.8224C70.8307 22.8242 70.4149 22.9122 69.9761 22.9122C68.5904 22.9122 68.1108 22.2662 68.1108 21.4229V15.8051H70.9354C71.0953 15.8051 71.2197 15.6615 71.2197 15.4641V12.4139C71.2197 12.2524 71.0776 12.1089 70.9354 12.1089H68.1108V8.32295C68.1108 8.17941 68.0219 8.0897 67.862 8.0897H64.0246C63.8648 8.0897 63.7759 8.17941 63.7759 8.32295V12.2165C63.7759 12.2165 61.8395 12.7009 61.7151 12.7189C61.573 12.7548 61.4842 12.8804 61.4842 13.0239V15.4641C61.4842 15.6615 61.6263 15.8051 61.7862 15.8051H63.7582V21.6902C63.7582 26.0682 66.7783 26.5168 68.8391 26.5168C69.7807 26.5168 70.9177 26.2118 71.0953 26.1221C71.202 26.0862 71.2553 25.9606 71.2553 25.8349V23.1436C71.2577 23.0673 71.2328 22.9925 71.1852 22.9332C71.1375 22.8739 71.0703 22.834 70.9959 22.8206V22.8224ZM113.093 18.8733C113.093 15.6256 111.796 15.195 110.428 15.3386C109.362 15.4103 108.509 15.9485 108.509 15.9485V22.2644C108.509 22.2644 109.38 22.8745 110.677 22.9103C112.507 22.9641 113.093 22.3002 113.093 18.8733ZM117.41 18.5862C117.41 24.7405 115.438 26.4988 111.992 26.4988C109.078 26.4988 107.514 25.0096 107.514 25.0096C107.514 25.0096 107.444 25.8349 107.355 25.9426C107.301 26.0502 107.213 26.0862 107.106 26.0862H104.477C104.299 26.0862 104.139 25.9426 104.139 25.7811L104.175 5.84687C104.175 5.68539 104.317 5.54185 104.477 5.54185H108.261C108.421 5.54185 108.563 5.68539 108.563 5.84687V12.6112C108.563 12.6112 110.02 11.6603 112.152 11.6603L112.134 11.6244C114.266 11.6244 117.41 12.4318 117.41 18.5862ZM101.919 12.1089H98.1882C97.9925 12.1089 97.8859 12.2524 97.8859 12.4497V22.2106C97.8859 22.2106 96.9083 22.9103 95.576 22.9103C94.2437 22.9103 93.8532 22.3002 93.8532 20.9546V12.4318C93.8532 12.2704 93.7108 12.1268 93.5509 12.1268H89.7488C89.5889 12.1268 89.4474 12.2704 89.4474 12.4318V21.6005C89.4474 25.5479 91.6324 26.5347 94.6351 26.5347C97.104 26.5347 99.1117 25.1532 99.1117 25.1532C99.1117 25.1532 99.2008 25.8529 99.2541 25.9606C99.289 26.0502 99.4139 26.1221 99.538 26.1221H101.919C102.114 26.1221 102.221 25.9785 102.221 25.817L102.256 12.4139C102.256 12.2524 102.114 12.1089 101.919 12.1089ZM59.8142 12.0909H56.0302C55.8703 12.0909 55.7281 12.2524 55.7281 12.4497V25.6197C55.7281 25.9785 55.959 26.1042 56.2611 26.1042H59.672C60.0273 26.1042 60.1162 25.9426 60.1162 25.6197V12.3959C60.1162 12.2344 59.9741 12.0909 59.8142 12.0909ZM57.9488 6.02629C56.5809 6.02629 55.4971 7.1208 55.4971 8.50238C55.4971 9.88395 56.5809 10.9785 57.9488 10.9785C59.2813 10.9785 60.3649 9.88395 60.3649 8.50238C60.3649 7.1208 59.2813 6.02629 57.9488 6.02629ZM87.2443 5.57773H83.4958C83.3359 5.57773 83.1937 5.72127 83.1937 5.88275V13.2213H77.3133V5.88275C77.3133 5.72127 77.1712 5.57773 77.0113 5.57773H73.2273C73.0673 5.57773 72.9252 5.72127 72.9252 5.88275V25.817C72.9252 25.9785 73.0851 26.1221 73.2273 26.1221H77.0113C77.1712 26.1221 77.3133 25.9785 77.3133 25.817V17.2943H83.1937L83.1582 25.817C83.1582 25.9785 83.3003 26.1221 83.4602 26.1221H87.2443C87.4039 26.1221 87.5463 25.9785 87.5463 25.817V5.88275C87.5463 5.72127 87.4039 5.57773 87.2443 5.57773ZM53.7206 14.4055V24.7046C53.7206 24.7764 53.7029 24.9019 53.614 24.9379C53.614 24.9379 51.3933 26.5347 47.7336 26.5347C43.31 26.5347 38.0691 25.1352 38.0691 15.9127C38.0691 6.69017 42.6526 4.78825 47.1295 4.8062C51.0025 4.8062 52.5658 5.68539 52.8145 5.84687C52.8856 5.93658 52.9211 6.00835 52.9211 6.09807L52.175 9.29189C52.175 9.45336 52.0151 9.65074 51.8197 9.59692C51.1801 9.39954 50.2208 9.00477 47.9646 9.00477C45.353 9.00477 42.546 9.75839 42.546 15.6974C42.546 21.6364 45.2109 22.3362 47.1295 22.3362C48.764 22.3362 49.3503 22.1388 49.3503 22.1388V18.012H46.7388C46.5433 18.012 46.4012 17.8684 46.4012 17.707V14.4055C46.4012 14.244 46.5433 14.1004 46.7388 14.1004H53.3831C53.5784 14.1004 53.7206 14.244 53.7206 14.4055Z" fill="#CFCFCF"/>
</g>
<defs>
<clipPath id="clip0_89_315">
<rect width="117.942" height="30" fill="white"/>
</clipPath>
</defs>
</svg>
