<svg width="113" height="48" viewBox="0 0 113 48" fill="none" xmlns="http://www.w3.org/2000/svg">
<g clip-path="url(#clip0_89_327)">
<path d="M48.4399 25.6501C48.4399 30.9734 44.3126 34.896 39.2474 34.896C34.1822 34.896 30.0548 30.9734 30.0548 25.6501C30.0548 20.2894 34.1822 16.4043 39.2474 16.4043C44.3126 16.4043 48.4399 20.2894 48.4399 25.6501ZM44.4159 25.6501C44.4159 22.3236 42.0238 20.0476 39.2474 20.0476C36.471 20.0476 34.0789 22.3236 34.0789 25.6501C34.0789 28.9433 36.471 31.2527 39.2474 31.2527C42.0238 31.2527 44.4159 28.9391 44.4159 25.6501Z" fill="#CFCFCF"/>
<path d="M68.2713 25.6501C68.2713 30.9734 64.1439 34.896 59.0787 34.896C54.0136 34.896 49.8862 30.9734 49.8862 25.6501C49.8862 20.2936 54.0136 16.4043 59.0787 16.4043C64.1439 16.4043 68.2713 20.2894 68.2713 25.6501ZM64.2473 25.6501C64.2473 22.3236 61.8551 20.0476 59.0787 20.0476C56.3023 20.0476 53.9102 22.3236 53.9102 25.6501C53.9102 28.9433 56.3023 31.2527 59.0787 31.2527C61.8551 31.2527 64.2473 28.9391 64.2473 25.6501Z" fill="#CFCFCF"/>
<path d="M87.2764 16.9629V33.562C87.2764 40.3901 83.2854 43.1789 78.5672 43.1789C74.1258 43.1789 71.4528 40.1817 70.4448 37.7306L73.9482 36.2591C74.572 37.7639 76.1007 39.5397 78.5631 39.5397C81.5833 39.5397 83.4548 37.6597 83.4548 34.1206V32.7909H83.3143C82.4136 33.9122 80.6784 34.8918 78.4887 34.8918C73.9069 34.8918 69.7094 30.865 69.7094 25.6835C69.7094 20.4645 73.9069 16.4043 78.4887 16.4043C80.6743 16.4043 82.4095 17.3839 83.3143 18.4719H83.4548V16.9671H87.2764V16.9629ZM83.7398 25.6835C83.7398 22.4278 81.5873 20.0476 78.8482 20.0476C76.0718 20.0476 73.7458 22.4278 73.7458 25.6835C73.7458 28.9058 76.0718 31.2527 78.8482 31.2527C81.5873 31.2527 83.7398 28.9058 83.7398 25.6835Z" fill="#CFCFCF"/>
<path d="M93.5765 7.23358V34.3291H89.6515V7.23358H93.5765Z" fill="#CFCFCF"/>
<path d="M108.871 28.6932L111.995 30.7941C110.987 32.299 108.558 34.8918 104.36 34.8918C99.1545 34.8918 95.2668 30.8317 95.2668 25.646C95.2668 20.1477 99.1875 16.4001 103.91 16.4001C108.665 16.4001 110.991 20.2185 111.752 22.282L112.169 23.3324L99.9186 28.4514C100.856 30.3064 102.315 31.2527 104.36 31.2527C106.409 31.2527 107.831 30.2356 108.871 28.6932ZM99.2578 25.3667L107.446 21.936C106.996 20.7813 105.641 19.9768 104.047 19.9768C102.001 19.9768 99.1545 21.7984 99.2578 25.3667Z" fill="#CFCFCF"/>
<path d="M15.198 23.2447V19.3221H28.2989C28.4269 20.0058 28.493 20.8145 28.493 21.6899C28.493 24.6329 27.6957 28.272 25.1259 30.8648C22.6263 33.491 19.4327 34.8917 15.202 34.8917C7.36046 34.8917 0.766602 28.4471 0.766602 20.5352C0.766602 12.6233 7.36046 6.17871 15.202 6.17871C19.5401 6.17871 22.6305 7.89615 24.9524 10.1347L22.2091 12.9026C20.5441 11.3269 18.2882 10.1013 15.198 10.1013C9.47166 10.1013 4.99312 14.7576 4.99312 20.5352C4.99312 26.3128 9.47166 30.9691 15.198 30.9691C18.9121 30.9691 21.0275 29.4642 22.3826 28.0969C23.4816 26.9881 24.2046 25.4041 24.4896 23.2406L15.198 23.2447Z" fill="#CFCFCF"/>
</g>
<defs>
<clipPath id="clip0_89_327">
<rect width="111.996" height="48" fill="white" transform="translate(0.631104)"/>
</clipPath>
</defs>
</svg>
