<svg width="135" height="36" viewBox="0 0 135 36" fill="none" xmlns="http://www.w3.org/2000/svg">
<g clip-path="url(#clip0_89_319)">
<path fill-rule="evenodd" clip-rule="evenodd" d="M41.4851 25.7845C40.9953 25.5962 40.6747 25.1972 40.6747 24.6653C40.6747 24.0216 41.2018 23.4908 41.8432 23.4908C42.0321 23.4908 42.1836 23.5285 42.3154 23.585C43.19 23.9919 44.1428 24.1993 45.106 24.1922C47.0684 24.1922 47.992 23.2448 47.992 21.4232V20.9301C47.1431 21.9551 46.2196 22.5811 44.6919 22.5811C42.3341 22.5811 40.2024 20.8547 40.2024 17.8386V17.802C40.2024 14.7671 42.3714 13.0607 44.6919 13.0607C46.2569 13.0607 47.1805 13.7255 47.9536 14.5787V14.5587C47.9536 13.7809 48.595 13.1371 49.3879 13.1371C50.1786 13.1371 50.82 13.7809 50.82 14.5775V21.1207C50.82 22.9412 50.3873 24.2676 49.5383 25.1208C48.595 26.0704 47.1431 26.487 45.1817 26.487C43.9159 26.4983 42.6602 26.2596 41.4851 25.7845ZM47.992 17.8397V17.802C47.992 16.417 46.9158 15.4496 45.521 15.4496C44.1263 15.4496 43.0698 16.417 43.0698 17.802V17.8397C43.0698 19.2425 44.1263 20.191 45.521 20.191C46.9158 20.191 47.992 19.2237 47.992 17.8397ZM52.4431 14.5775C52.4431 13.7809 53.0845 13.1371 53.8763 13.1371C54.6692 13.1371 55.3095 13.7809 55.3095 14.5775V15.0319C55.7246 14.0468 56.4033 13.1371 57.2533 13.1371C58.1396 13.1371 58.648 13.7243 58.648 14.5399C58.648 15.2978 58.1582 15.7532 57.5729 15.8862C56.1211 16.2286 55.3105 17.3466 55.3105 19.3943V22.0869C55.3105 22.8836 54.6692 23.5285 53.8763 23.5285C53.6884 23.5289 53.5023 23.492 53.3286 23.4198C53.1549 23.3477 52.997 23.2417 52.8638 23.1079C52.7308 22.9742 52.6251 22.8152 52.5529 22.6402C52.4807 22.4652 52.4434 22.2776 52.4431 22.088V14.5775ZM58.3087 20.4947V20.4569C58.3087 18.2375 59.9868 17.2136 62.383 17.2136C63.4011 17.2136 64.1369 17.3843 64.854 17.6303V17.4596C64.854 16.2662 64.1182 15.6014 62.6851 15.6014C62.0141 15.5942 61.3461 15.6902 60.7038 15.8862C60.5713 15.9358 60.4312 15.9617 60.2898 15.9626C60.1348 15.9656 59.9808 15.9374 59.8368 15.8795C59.6927 15.8217 59.5616 15.7355 59.4509 15.6259C59.3403 15.5164 59.2524 15.3857 59.1924 15.2414C59.1324 15.0971 59.1015 14.9423 59.1016 14.7859C59.1016 14.2739 59.42 13.8385 59.8747 13.6667C60.7797 13.3255 61.7604 13.1371 63.0991 13.1371C64.664 13.1371 65.7963 13.5537 66.5123 14.2739C67.2668 15.0319 67.6073 16.1522 67.6073 17.5172V22.1434C67.6073 22.9213 66.9846 23.5285 66.2114 23.5285C65.3811 23.5285 64.8343 22.9412 64.8343 22.334V22.3141C64.1369 23.0919 63.176 23.6039 61.779 23.6039C59.8747 23.6039 58.3087 22.5047 58.3087 20.4947ZM64.8913 19.8298V19.319C64.3149 19.0634 63.6914 18.9338 63.0617 18.9389C61.8351 18.9389 61.0817 19.432 61.0817 20.3428V20.3805C61.0817 21.1583 61.723 21.6137 62.6466 21.6137C63.9864 21.6137 64.8913 20.8736 64.8913 19.8298ZM69.1349 14.5775C69.1349 13.7809 69.7762 13.1371 70.5692 13.1371C71.3609 13.1371 72.0023 13.7809 72.0023 14.5775V14.6917C72.6612 13.8385 73.5299 13.0607 74.9817 13.0607C76.3021 13.0607 77.3011 13.6479 77.8297 14.6729C78.7157 13.6302 79.7735 13.0607 81.1479 13.0607C83.2798 13.0607 84.5635 14.3504 84.5635 16.797V22.0869C84.5635 22.8836 83.9213 23.5285 83.1296 23.5285C82.9416 23.5289 82.755 23.492 82.5818 23.4199C82.4078 23.3477 82.2495 23.2418 82.1165 23.108C81.9834 22.9742 81.8778 22.8153 81.805 22.6403C81.7329 22.4653 81.6957 22.2776 81.695 22.088V17.7444C81.695 16.3793 81.0914 15.6779 80.0173 15.6779C78.9417 15.6779 78.2816 16.3793 78.2816 17.7444V22.088C78.2816 22.8836 77.6416 23.5285 76.8485 23.5285C76.4694 23.5291 76.1051 23.3777 75.8368 23.1076C75.5677 22.8374 75.4161 22.4708 75.4153 22.088V17.7444C75.4153 16.3793 74.8115 15.6779 73.7375 15.6779C72.6612 15.6779 72.0023 16.3793 72.0023 17.7444V22.088C72.0023 22.8836 71.3609 23.5285 70.5692 23.5285C70.3812 23.5291 70.195 23.4923 70.0211 23.4202C69.8472 23.348 69.6892 23.2421 69.556 23.1083C69.4228 22.9745 69.317 22.8155 69.2448 22.6405C69.1725 22.4654 69.1351 22.2776 69.1349 22.088V14.5775ZM86.1096 14.5775C86.1096 13.7809 86.7511 13.1371 87.5428 13.1371C88.3359 13.1371 88.9774 13.7809 88.9774 14.5775V14.6917C89.636 13.8385 90.5042 13.0607 91.9567 13.0607C93.2769 13.0607 94.2759 13.6479 94.8044 14.6729C95.6905 13.6302 96.7475 13.0607 98.1234 13.0607C100.255 13.0607 101.538 14.3504 101.538 16.797V22.0869C101.538 22.8836 100.896 23.5285 100.104 23.5285C99.7238 23.5291 99.3603 23.3777 99.0912 23.1076C98.8229 22.8374 98.6712 22.4708 98.6705 22.088V17.7444C98.6705 16.3793 98.0662 15.6779 96.992 15.6779C95.9157 15.6779 95.2571 16.3793 95.2571 17.7444V22.088C95.2571 22.8836 94.6156 23.5285 93.824 23.5285C93.6359 23.5289 93.4501 23.492 93.2761 23.4198C93.1022 23.3477 92.9446 23.2417 92.8115 23.1079C92.6785 22.9742 92.5729 22.8152 92.5001 22.6402C92.428 22.4652 92.3908 22.2776 92.3908 22.088V17.7444C92.3908 16.3793 91.7865 15.6779 90.7116 15.6779C89.636 15.6779 88.9759 16.3793 88.9759 17.7444V22.088C88.9759 22.8836 88.3359 23.5285 87.5428 23.5285C87.3555 23.5289 87.1689 23.492 86.9957 23.4198C86.8218 23.3477 86.6634 23.2417 86.5304 23.1079C86.3973 22.9742 86.2918 22.8152 86.2197 22.6402C86.1476 22.4652 86.1104 22.2776 86.1096 22.088V14.5775ZM102.481 20.4947V20.4569C102.481 18.2375 104.16 17.2136 106.555 17.2136C107.396 17.206 108.233 17.347 109.025 17.6303V17.4596C109.025 16.2662 108.289 15.6014 106.856 15.6014C106.064 15.6014 105.423 15.7156 104.876 15.8862C104.744 15.9358 104.604 15.9617 104.463 15.9626C104.307 15.9659 104.153 15.9378 104.008 15.8801C103.864 15.8225 103.733 15.7363 103.622 15.6266C103.511 15.5171 103.423 15.3862 103.363 15.2418C103.304 15.0974 103.272 14.9424 103.272 14.7859C103.272 14.2739 103.594 13.8385 104.046 13.6667C104.952 13.3255 105.933 13.1371 107.272 13.1371C108.838 13.1371 109.968 13.5537 110.685 14.2739C111.439 15.0319 111.778 16.1522 111.778 17.5172V22.1434C111.778 22.3272 111.742 22.5092 111.672 22.6787C111.602 22.8482 111.498 23.0018 111.369 23.1308C111.239 23.2597 111.085 23.3612 110.916 23.4295C110.747 23.4978 110.566 23.5314 110.384 23.5285C109.554 23.5285 109.007 22.9412 109.007 22.334V22.3141C108.309 23.0919 107.346 23.6039 105.951 23.6039C104.046 23.6039 102.481 22.5047 102.481 20.4947ZM109.064 19.8298V19.319C108.487 19.0634 107.864 18.9339 107.234 18.9389C106.007 18.9389 105.254 19.432 105.254 20.3428V20.3805C105.254 21.1583 105.894 21.6137 106.819 21.6137C108.158 21.6137 109.064 20.8736 109.064 19.8298ZM113.307 14.5775C113.307 13.7809 113.948 13.1371 114.741 13.1371C115.533 13.1371 116.174 13.7809 116.174 14.5775V15.0319C116.589 14.0468 117.267 13.1371 118.118 13.1371C119.003 13.1371 119.512 13.7243 119.512 14.5399C119.512 15.2978 119.021 15.7532 118.437 15.8862C116.985 16.2286 116.174 17.3466 116.174 19.3943V22.0869C116.174 22.8836 115.533 23.5285 114.741 23.5285C114.361 23.5291 113.997 23.3777 113.728 23.1076C113.46 22.8374 113.308 22.4708 113.307 22.088V14.5775ZM120.38 10.8988C120.38 10.101 121.021 9.45833 121.813 9.45833C122.606 9.45833 123.247 10.101 123.247 10.8988V22.0869C123.247 22.8836 122.606 23.5285 121.813 23.5285C121.434 23.5291 121.069 23.3777 120.801 23.1076C120.532 22.8374 120.38 22.4708 120.38 22.088V10.8977V10.8988ZM125.529 26.24C125.114 26.0892 124.623 25.7468 124.623 25.0466C124.62 24.894 124.647 24.7424 124.702 24.6004C124.758 24.4584 124.84 24.3289 124.946 24.2195C125.051 24.11 125.177 24.0227 125.316 23.9627C125.455 23.9027 125.604 23.8711 125.755 23.8698C125.981 23.8698 126.114 23.9075 126.227 23.9462C126.471 24.0216 126.623 24.0604 126.831 24.0604C127.339 24.0604 127.585 23.9651 127.849 23.4532L127.943 23.2249L124.492 15.1848C124.406 14.9731 124.355 14.7485 124.341 14.5199C124.341 13.7055 124.964 13.1371 125.755 13.1371C126.471 13.1371 126.887 13.5349 127.131 14.2175L129.32 20.1345L131.432 14.2363C131.658 13.6302 132.072 13.1371 132.81 13.1371C133.544 13.1371 134.165 13.7055 134.165 14.4646C134.165 14.6917 134.091 15.0142 134.035 15.1471L130.507 23.6615C129.659 25.728 128.81 26.5058 127.094 26.5058C126.453 26.5058 126.001 26.4117 125.529 26.24Z" fill="#CFCFCF"/>
<path fill-rule="evenodd" clip-rule="evenodd" d="M16.606 34.071C25.2567 34.071 32.2699 27.0193 32.2699 18.321C32.2699 9.62272 25.2567 2.57098 16.606 2.57098C7.95542 2.57098 0.94223 9.62272 0.94223 18.321C0.94223 27.0193 7.95542 34.071 16.606 34.071ZM19.7494 22.591C19.2278 22.591 18.7457 22.2375 18.6534 21.7222C18.6246 21.5677 18.6301 21.4086 18.6692 21.2563C18.7083 21.1041 18.7804 20.9625 18.88 20.8415C18.9796 20.7205 19.1045 20.6233 19.2456 20.5566C19.3868 20.4899 19.5408 20.4555 19.6967 20.4557H25.459V26.5345C25.4585 26.6917 25.4237 26.8469 25.3571 26.9891C25.2905 27.1312 25.1936 27.2567 25.0735 27.3568C24.9535 27.4571 24.813 27.5293 24.6621 27.5685C24.5112 27.6077 24.3536 27.613 24.2005 27.5839C23.6876 27.4908 23.3362 27.0055 23.3362 26.4825V25.4674L23.5361 24.3439C22.6758 25.3433 21.612 26.1437 20.4173 26.6904C19.2224 27.2372 17.9248 27.5173 16.6129 27.5119C11.3513 27.5119 7.12217 23.135 7.42747 17.772C7.69104 13.1647 11.3975 9.39615 15.977 9.087C17.6238 8.97007 19.2714 9.30232 20.7471 10.049C22.2227 10.7957 23.4721 11.9293 24.3641 13.3309C24.4973 13.5614 24.5388 13.8344 24.48 14.0947C24.4213 14.3549 24.2668 14.5829 24.0479 14.7325C23.5657 15.0683 22.9024 14.891 22.5685 14.4068C21.31 12.6283 19.1158 11.1557 16.6129 11.1557C11.8104 11.1557 8.12593 15.9991 10.061 21.0729C10.9143 23.3079 12.935 24.909 15.2874 25.2802C18.1768 25.7356 20.8191 24.7029 22.3412 22.458L21.3901 22.591H19.7494Z" fill="#CFCFCF"/>
</g>
<defs>
<clipPath id="clip0_89_319">
<rect width="133.8" height="36" fill="white" transform="translate(0.94223)"/>
</clipPath>
</defs>
</svg>
