<svg width="527" height="559" viewBox="0 0 527 559" fill="none" xmlns="http://www.w3.org/2000/svg">
<g clip-path="url(#clip0_268_3090)">
<path opacity="0.2" d="M412.662 424.65C493.055 339.375 493.055 201.118 412.662 115.843C332.269 30.5684 201.926 30.5684 121.533 115.843C41.14 201.118 41.14 339.375 121.533 424.65C201.926 509.924 332.269 509.924 412.662 424.65Z" fill="#FF3300"/>
<path d="M67.8873 167.546C55.1847 185.473 50.5333 208.069 56.9767 234.068C62.0687 254.6 69.9325 256.293 77.4268 273.967C95.915 317.565 67.2316 357.518 88.9395 375.135C94.36 379.398 100.757 382.046 107.467 382.804C151.048 388.808 190.131 331.309 190.131 331.309L163.781 245.385L137.586 184.76C113.995 180.798 90.7021 175.045 67.8873 167.546Z" fill="#FF3300"/>
<path d="M194.543 167.881C194.543 167.881 238.76 214.105 219.674 267.952C200.587 321.799 162.942 324.693 162.942 324.693C145.276 265.688 151.774 288.998 134.636 222.117L194.543 167.881Z" fill="#FF3300"/>
<path d="M157.503 485.894C157.503 485.894 75.3991 481.904 66.3073 441.412C63.6548 429.597 65.1432 416.192 65.4684 414.256C68.8363 394.2 77.01 386.995 92.0593 361.232C112.823 325.686 109.167 317.068 127.077 297.143C127.077 297.143 128.674 295.413 130.351 293.793C138.521 285.898 161.91 277.29 165.402 275.934C188.846 266.824 192.164 243.888 216.301 226.122C222.461 221.311 229.363 217.671 236.697 215.363C242.326 213.684 246.596 213.507 263.387 206.973C318.566 185.504 339.836 162.956 370.183 170.82C375.529 172.206 382.157 174.015 387.906 179.979C409.933 202.833 388.739 255.264 387.452 258.353L267.103 435.627L157.503 485.894Z" fill="#080717"/>
<path d="M143.592 327.559L145.915 351.458C145.915 351.458 135.519 373.016 145.915 382.804L148.915 415.088" stroke="white" stroke-width="2" stroke-linecap="round" stroke-linejoin="round"/>
<path d="M93.6022 410.268C105.527 402.579 119.415 402.594 131.776 408.661L149.042 419.717" stroke="white" stroke-width="2" stroke-linecap="round" stroke-linejoin="round"/>
<path d="M360.081 184.029C360.081 184.029 338.861 188.002 325.068 211.651V225.19" stroke="white" stroke-width="2" stroke-linecap="round" stroke-linejoin="round"/>
<path d="M461.562 245.379H220.857C215.478 245.379 211.117 250.005 211.117 255.711V474.654C211.117 480.36 215.478 484.986 220.857 484.986H461.562C466.942 484.986 471.303 480.36 471.303 474.654V255.711C471.303 250.005 466.942 245.379 461.562 245.379Z" fill="white" stroke="#090817" stroke-width="2" stroke-linecap="round" stroke-linejoin="round"/>
<path d="M211.117 270.246H471.303" stroke="#080717" stroke-width="2" stroke-linecap="round" stroke-linejoin="round"/>
<path d="M414.664 264.478C417.85 264.478 420.434 261.738 420.434 258.357C420.434 254.977 417.85 252.237 414.664 252.237C411.477 252.237 408.893 254.977 408.893 258.357C408.893 261.738 411.477 264.478 414.664 264.478Z" fill="#080717"/>
<path d="M434.56 264.478C437.747 264.478 440.33 261.738 440.33 258.357C440.33 254.977 437.747 252.237 434.56 252.237C431.373 252.237 428.79 254.977 428.79 258.357C428.79 261.738 431.373 264.478 434.56 264.478Z" fill="#080717"/>
<path d="M454.457 264.478C457.644 264.478 460.227 261.738 460.227 258.357C460.227 254.977 457.644 252.237 454.457 252.237C451.27 252.237 448.687 254.977 448.687 258.357C448.687 261.738 451.27 264.478 454.457 264.478Z" fill="#080717"/>
<path d="M328.363 280.939H225.2C223.579 280.939 222.265 282.333 222.265 284.052V328.196C222.265 329.915 223.579 331.309 225.2 331.309H328.363C329.984 331.309 331.298 329.915 331.298 328.196V284.052C331.298 282.333 329.984 280.939 328.363 280.939Z" fill="white" stroke="#090817" stroke-width="2" stroke-linecap="round" stroke-linejoin="round"/>
<path d="M264.916 345.66H224.447C223.242 345.66 222.265 346.696 222.265 347.974V365.293C222.265 366.572 223.242 367.608 224.447 367.608H264.916C266.121 367.608 267.098 366.572 267.098 365.293V347.974C267.098 346.696 266.121 345.66 264.916 345.66Z" fill="white" stroke="#090817" stroke-width="2" stroke-linecap="round" stroke-linejoin="round"/>
<path d="M329.116 345.66H288.647C287.442 345.66 286.465 346.696 286.465 347.974V365.293C286.465 366.572 287.442 367.608 288.647 367.608H329.116C330.321 367.608 331.298 366.572 331.298 365.293V347.974C331.298 346.696 330.321 345.66 329.116 345.66Z" fill="white" stroke="#090817" stroke-width="2" stroke-linecap="round" stroke-linejoin="round"/>
<path d="M328.583 382.804H224.98C223.481 382.804 222.265 384.093 222.265 385.683V467.719C222.265 469.309 223.481 470.598 224.98 470.598H328.583C330.083 470.598 331.298 469.309 331.298 467.719V385.683C331.298 384.093 330.083 382.804 328.583 382.804Z" stroke="#080717" stroke-width="2" stroke-linecap="round" stroke-linejoin="round" stroke-dasharray="12 12"/>
<path d="M455.862 280.939H352.64C350.23 280.939 348.276 283.012 348.276 285.568V397.309C348.276 399.866 350.23 401.938 352.64 401.938H455.862C458.273 401.938 460.226 399.866 460.226 397.309V285.568C460.226 283.012 458.273 280.939 455.862 280.939Z" fill="white" stroke="#090817" stroke-width="2" stroke-linecap="round" stroke-linejoin="round"/>
<path d="M455.091 419.104H353.411C350.575 419.104 348.276 421.542 348.276 424.551V465.152C348.276 468.161 350.575 470.599 353.411 470.599H455.091C457.927 470.599 460.226 468.161 460.226 465.152V424.551C460.226 421.542 457.927 419.104 455.091 419.104Z" fill="white" stroke="#090817" stroke-width="2" stroke-linecap="round" stroke-linejoin="round"/>
<path d="M360.081 292.195H447.626" stroke="#080717" stroke-width="2" stroke-linecap="round" stroke-linejoin="round"/>
<path d="M360.081 306.125H447.626" stroke="#080717" stroke-width="2" stroke-linecap="round" stroke-linejoin="round"/>
<path d="M360.081 320.054H447.626" stroke="#080717" stroke-width="2" stroke-linecap="round" stroke-linejoin="round"/>
<path d="M360.081 333.982H447.626" stroke="#080717" stroke-width="2" stroke-linecap="round" stroke-linejoin="round"/>
<path d="M360.081 347.911H447.626" stroke="#080717" stroke-width="2" stroke-linecap="round" stroke-linejoin="round"/>
<path d="M360.081 361.84H447.626" stroke="#080717" stroke-width="2" stroke-linecap="round" stroke-linejoin="round"/>
<path d="M360.081 375.769H447.626" stroke="#080717" stroke-width="2" stroke-linecap="round" stroke-linejoin="round"/>
<path d="M360.081 389.698H447.626" stroke="#080717" stroke-width="2" stroke-linecap="round" stroke-linejoin="round"/>
<path d="M162.21 215.923L128.837 236.819L165.11 302.001L198.483 281.106L162.21 215.923Z" fill="white" stroke="#090817" stroke-width="2" stroke-linecap="round" stroke-linejoin="round"/>
<path d="M199.196 164.136C197.703 161.274 195.306 159.063 192.427 157.891C189.548 156.72 186.371 156.663 183.457 157.732C178.604 148.848 171.845 141.302 163.728 135.708C155.61 130.114 146.364 126.628 136.739 125.535C88.9693 120.076 53.8734 172.341 74.2669 218.37C81.7334 236.675 100.794 268.82 141.377 263.425C185.299 257.587 194.624 216.84 191.71 186.704C191.662 185.852 191.595 185.006 191.517 184.162C193.388 183.563 195.108 182.527 196.553 181.131C197.997 179.735 199.129 178.014 199.865 176.094C200.601 174.174 200.923 172.104 200.807 170.035C200.691 167.966 200.141 165.95 199.196 164.136Z" fill="white" stroke="#090817" stroke-width="2" stroke-linecap="round" stroke-linejoin="round"/>
<path d="M141.75 274.625L160.533 314.148L207.493 277.513L186.289 241.52C173.478 255.354 158.381 266.575 141.75 274.625Z" fill="#080717"/>
<path d="M171.058 435.954C171.058 435.954 161.026 427.755 153.633 421.133C146.239 414.512 147.719 432.809 157.083 442.045C159.777 444.735 163.005 446.75 166.53 447.942C170.055 449.134 173.787 449.473 177.452 448.933C177.452 448.933 180.319 438.575 171.058 435.954Z" fill="white" stroke="#090817" stroke-width="2" stroke-linecap="round" stroke-linejoin="round"/>
<path d="M276.215 396.205H171.661C167.312 396.205 163.787 399.945 163.787 404.558V498.761C163.787 503.374 167.312 507.113 171.661 507.113H276.215C280.564 507.113 284.089 503.374 284.089 498.761V404.558C284.089 399.945 280.564 396.205 276.215 396.205Z" fill="#FF3300"/>
<path d="M194.543 425.01C194.543 424.271 194.727 423.545 195.075 422.905C195.423 422.265 195.924 421.733 196.528 421.363C197.131 420.994 197.816 420.799 198.513 420.799C199.21 420.799 199.894 420.993 200.498 421.363L251.345 452.504C251.949 452.874 252.45 453.405 252.798 454.045C253.147 454.686 253.33 455.412 253.33 456.151C253.33 456.89 253.147 457.617 252.798 458.257C252.45 458.897 251.949 459.429 251.345 459.798L200.498 490.94C199.894 491.309 199.21 491.504 198.513 491.504C197.816 491.504 197.131 491.31 196.528 490.94C195.924 490.571 195.423 490.039 195.075 489.399C194.726 488.758 194.543 488.032 194.543 487.293V425.01Z" fill="white" stroke="#090817" stroke-width="2" stroke-linecap="round" stroke-linejoin="round"/>
<path d="M151.695 487.031C150.655 486.433 148.39 485.13 148.195 482.98C148.014 480.983 149.675 478.832 152.343 477.391C152.343 477.391 143.377 469.082 150.079 464.617C150.079 464.617 141.545 457.63 148.915 451.853C148.915 451.853 143.39 444.269 148.915 439.641C154.439 435.014 174.713 441.695 177.249 446.38C179.785 451.065 170.093 453.017 170.093 453.017C170.093 453.017 182.74 459.022 171.054 463.368C171.054 463.368 183.997 468.827 171.855 475.741C176.573 477.957 177.63 479.767 177.612 481.072C177.554 486.224 160.623 492.167 151.695 487.031Z" fill="white" stroke="#090817" stroke-width="2" stroke-linecap="round" stroke-linejoin="round"/>
<path d="M152.343 477.391L173.092 476.36" stroke="#080717" stroke-width="2" stroke-linecap="round" stroke-linejoin="round"/>
<path d="M149.043 463.632L171.058 463.371" stroke="#080717" stroke-width="2" stroke-linecap="round" stroke-linejoin="round"/>
<path d="M148.915 451.855L170.098 453.019" stroke="#080717" stroke-width="2" stroke-linecap="round" stroke-linejoin="round"/>
<path d="M317.797 249.912C317.797 249.912 311.435 257.257 305.376 260.175C299.316 263.094 293.712 267.43 294.621 272.25C295.53 277.071 317.797 270.254 317.797 270.254V249.912Z" fill="white" stroke="#090817" stroke-width="2" stroke-linecap="round" stroke-linejoin="round"/>
<path d="M310.075 236.577V367.428C310.075 367.766 310.201 368.09 310.426 368.329C310.652 368.568 310.957 368.702 311.276 368.702H408.886C409.044 368.702 409.2 368.669 409.346 368.605C409.492 368.541 409.624 368.447 409.736 368.329C409.847 368.211 409.936 368.07 409.996 367.916C410.056 367.761 410.087 367.595 410.087 367.428V259.818L386.975 235.303H311.276C310.957 235.303 310.652 235.437 310.426 235.676C310.201 235.915 310.075 236.239 310.075 236.577Z" fill="#FF3300"/>
<path d="M386.975 236.615V259.629C386.976 259.772 387.029 259.908 387.124 260.009C387.22 260.11 387.349 260.166 387.483 260.166H408.875C408.975 260.167 409.073 260.136 409.156 260.077C409.239 260.018 409.304 259.935 409.343 259.837C409.382 259.739 409.392 259.631 409.373 259.527C409.354 259.423 409.306 259.327 409.236 259.252L387.844 236.235C387.773 236.159 387.683 236.107 387.584 236.086C387.485 236.065 387.383 236.075 387.289 236.116C387.196 236.156 387.117 236.226 387.061 236.315C387.005 236.404 386.975 236.508 386.975 236.615Z" fill="white" stroke="#090817" stroke-width="2" stroke-linecap="round" stroke-linejoin="round"/>
<path d="M369.776 275.103C367.503 268.836 357.96 265.703 353.415 269.8C348.871 273.898 334.953 340.597 334.953 340.597C333.547 347.202 345.917 346.929 347.51 344.375C349.104 341.82 351.373 322.946 352.169 321.62C352.964 320.295 363.303 320.535 363.739 321.62C364.175 322.706 365.12 341.264 366.257 343.27C367.393 345.275 376.254 344.396 377.05 341.866C377.846 339.335 372.048 281.369 369.776 275.103ZM363.736 309.81C363.64 311.617 355.384 310.975 354.286 311.095C353.188 311.216 352.971 309.908 353.264 308.203C353.264 308.203 357.619 282.213 359.777 281.49C361.936 280.768 363.832 308.002 363.736 309.81Z" fill="white" stroke="#090817" stroke-width="2" stroke-linecap="round" stroke-linejoin="round"/>
<path d="M366.653 218.968C365.841 218.056 364.07 216.07 362.061 216.425C360.195 216.752 358.665 219.01 358.04 222.117C358.04 222.117 348.159 215.071 345.822 223.089C345.822 223.089 337.26 216.143 333.895 225.185C333.895 225.185 325.557 221.48 322.773 228.338C319.989 235.197 331.294 254.249 336.216 255.641C341.138 257.033 340.416 246.597 340.416 246.597C340.416 246.597 349.145 258.01 350.092 244.912C350.092 244.912 358.402 256.77 361.568 242.543C364.803 246.807 366.725 247.424 367.909 247.07C372.583 245.673 373.635 226.794 366.653 218.968Z" fill="white" stroke="#090817" stroke-width="2" stroke-linecap="round" stroke-linejoin="round"/>
<path d="M358.04 222.117L362.449 243.648" stroke="#080717" stroke-width="2" stroke-linecap="round" stroke-linejoin="round"/>
<path d="M344.656 222.282L350.093 244.912" stroke="#080717" stroke-width="2" stroke-linecap="round" stroke-linejoin="round"/>
<path d="M333.895 225.185L340.416 246.597" stroke="#080717" stroke-width="2" stroke-linecap="round" stroke-linejoin="round"/>
<path d="M137.586 177.219C140.674 173.473 144.665 170.689 149.131 169.166C153.597 167.643 158.37 167.438 162.938 168.573" stroke="#080717" stroke-width="2" stroke-linecap="round" stroke-linejoin="round"/>
<path d="M148.956 187.534C149.419 186.756 150.035 186.094 150.762 185.593C151.489 185.093 152.311 184.765 153.169 184.634C155.86 184.415 159.228 185.813 160.181 181.986" stroke="#080717" stroke-width="2" stroke-linecap="round" stroke-linejoin="round"/>
<path d="M153.488 197.823C157.189 197.823 160.189 194.64 160.189 190.714C160.189 186.788 157.189 183.605 153.488 183.605C149.786 183.605 146.786 186.788 146.786 190.714C146.786 194.64 149.786 197.823 153.488 197.823Z" fill="#080717"/>
<path d="M107.071 195.541C102.934 196.148 99.0592 198.042 95.9374 200.985C92.8156 203.928 90.5867 207.786 89.5324 212.073" stroke="#080717" stroke-width="2" stroke-linecap="round" stroke-linejoin="round"/>
<path d="M107.345 211.625C106.479 211.626 105.622 211.827 104.836 212.213C104.049 212.6 103.351 213.162 102.789 213.862C101.18 216.163 100.502 219.93 96.9413 218.749" stroke="#080717" stroke-width="2" stroke-linecap="round" stroke-linejoin="round"/>
<path d="M107.47 224.495C111.171 224.495 114.172 221.313 114.172 217.387C114.172 213.461 111.171 210.278 107.47 210.278C103.769 210.278 100.768 213.461 100.768 217.387C100.768 221.313 103.769 224.495 107.47 224.495Z" fill="#080717"/>
<path d="M127.309 201.388C127.309 201.388 129.588 218.888 132.164 220.283C134.739 221.678 141.427 216.701 141.427 216.701" stroke="#080717" stroke-width="2" stroke-linecap="round" stroke-linejoin="round"/>
<path d="M174.727 206.16C179.037 203.242 181.075 198.457 179.279 195.472C177.483 192.488 172.533 192.434 168.223 195.352C163.913 198.271 161.875 203.056 163.671 206.04C165.467 209.025 170.417 209.079 174.727 206.16Z" fill="#FF3300"/>
<path d="M116.644 243.369C120.954 240.451 122.992 235.666 121.196 232.681C119.4 229.697 114.45 229.643 110.14 232.561C105.83 235.48 103.792 240.265 105.588 243.249C107.384 246.234 112.334 246.288 116.644 243.369Z" fill="#FF3300"/>
<path d="M81.2177 164.172C81.2177 164.172 98.7899 162.003 120.603 148.746C142.416 135.49 173.206 162.484 179.341 163.448C185.475 164.413 186.078 158.288 187.595 156.972C189.111 155.656 193.39 157.3 193.39 157.3C181.792 127.04 153.111 108.673 124.016 112.108C98.7157 115.094 76.9502 134.105 68.441 160.634C55.6911 176.683 52.243 198.223 59.7105 215.921C67.1709 233.602 82.5856 240.487 86.2962 242.015C72.3472 217.658 71.4682 189.408 81.2177 164.172Z" fill="#FF3300"/>
<path d="M195.512 164.172L187.71 167.885C187.71 167.885 195.663 170.344 192.558 177.222" stroke="#080717" stroke-width="2" stroke-linecap="round" stroke-linejoin="round"/>
<path d="M159.712 217.958C160.737 219.439 161.476 221.12 161.886 222.906C162.01 223.458 163.43 230.133 159.836 234.065C156.612 237.595 150.212 237.97 144.946 234.079C148.449 232.852 151.621 230.745 154.192 227.938C156.763 225.131 158.656 221.707 159.712 217.958Z" stroke="#080717" stroke-width="2" stroke-linecap="round" stroke-linejoin="round"/>
<path d="M90.3064 147.782C90.3064 147.782 126.452 140.771 139.841 128.34" stroke="white" stroke-width="2" stroke-linecap="round" stroke-linejoin="round"/>
<path d="M105.803 138.061C105.803 138.061 132.162 129.063 138.373 121.833" stroke="white" stroke-width="2" stroke-linecap="round" stroke-linejoin="round"/>
<path d="M64.7623 212.068C64.7623 212.068 59.4038 237.443 77.5822 255.118C95.7606 272.793 96.6366 314.57 89.5324 335.459" stroke="white" stroke-width="2" stroke-linecap="round" stroke-linejoin="round"/>
<path d="M98.2979 270.246C98.2979 270.246 113.198 294.324 104.932 316.177" stroke="white" stroke-width="2" stroke-linecap="round" stroke-linejoin="round"/>
<path d="M200.832 194.59C200.832 194.59 210.556 211.258 211.117 220.53" stroke="white" stroke-width="2" stroke-linecap="round" stroke-linejoin="round"/>
<path d="M319.884 86.9442H228.071C226.212 86.9442 224.429 87.7275 223.114 89.1218C221.8 90.5162 221.061 92.4074 221.061 94.3793V159.701C221.061 161.673 221.8 163.565 223.114 164.959C224.429 166.353 226.212 167.137 228.071 167.137H262.758L268.852 186.763C268.891 186.886 268.965 186.992 269.065 187.066C269.164 187.141 269.284 187.179 269.406 187.176C269.528 187.172 269.646 187.127 269.741 187.047C269.837 186.968 269.906 186.857 269.938 186.732L274.977 167.137H319.88C321.739 167.137 323.522 166.353 324.836 164.959C326.151 163.565 326.889 161.673 326.889 159.701V94.3793C326.889 92.4081 326.151 90.5176 324.838 89.1234C323.524 87.7292 321.742 86.9453 319.884 86.9442Z" fill="white" stroke="#090817" stroke-width="2" stroke-linecap="round" stroke-linejoin="round"/>
<path d="M257.736 110.08L238.511 124.96L257.389 140.392" stroke="#080717" stroke-width="3" stroke-linecap="round" stroke-linejoin="round"/>
<path d="M288.912 110.08L308.137 124.96L289.258 140.392" stroke="#080717" stroke-width="3" stroke-linecap="round" stroke-linejoin="round"/>
<path d="M276.683 107.508L265.945 146.638" stroke="#080717" stroke-width="3" stroke-linecap="round" stroke-linejoin="round"/>
</g>
<defs>
<clipPath id="clip0_268_3090">
<rect width="527" height="559" fill="white"/>
</clipPath>
</defs>
</svg>
