<svg width="22" height="20" viewBox="0 0 22 20" fill="none" xmlns="http://www.w3.org/2000/svg">
<path d="M10.75 0C13.6693 0 14.0362 0.0115118 15.1826 0.0595703C16.9295 0.13333 18.4645 0.529456 19.6963 1.66895C20.9281 2.80853 21.3558 4.22859 21.4355 5.84473C21.4875 6.90554 21.501 7.24452 21.501 9.94531C21.501 12.6463 21.4875 12.986 21.4355 14.0469C21.3558 15.6628 20.9279 17.0822 19.6963 18.2217C18.4645 19.3613 16.9295 19.7573 15.1826 19.8311C14.0362 19.8791 13.6693 19.8906 10.75 19.8906C7.83064 19.8906 7.46404 19.8791 6.31738 19.8311C4.57061 19.7573 3.03642 19.3611 1.80469 18.2217C0.573 17.0822 0.14424 15.6628 0.0644531 14.0469C0.0124936 12.986 0 12.6463 0 9.94531C8.14829e-07 7.24453 0.0124958 6.90554 0.0644531 5.84473C0.144184 4.22858 0.572888 2.80853 1.80469 1.66895C3.03638 0.529677 4.57073 0.133343 6.31738 0.0595703C7.46404 0.0115018 7.83064 6.5697e-07 10.75 0ZM10.749 1.79199C7.87895 1.79199 7.53848 1.80154 6.40527 1.84961C5.18154 1.90099 4.04631 2.12845 3.17285 2.93652C2.29947 3.74455 2.05458 4.79472 1.99902 5.92676C1.94707 6.97512 1.93555 7.29024 1.93555 9.94531C1.93555 12.6008 1.94706 12.9164 1.99902 13.9648C2.0546 15.0968 2.29948 16.1471 3.17285 16.9551C4.0463 17.7631 5.18156 17.9896 6.40527 18.041C7.5385 18.0891 7.87894 18.0996 10.749 18.0996C13.6193 18.0996 13.9605 18.0891 15.0938 18.041C16.3172 17.9896 17.4519 17.7628 18.3252 16.9551C19.1986 16.1471 19.4444 15.0969 19.5 13.9648C19.552 12.9164 19.5625 12.6008 19.5625 9.94531C19.5625 7.29024 19.552 6.97512 19.5 5.92676C19.4444 4.79469 19.1986 3.74456 18.3252 2.93652C17.4519 2.12872 16.3172 1.90103 15.0938 1.84961C13.9605 1.80154 13.6193 1.79199 10.749 1.79199ZM10.748 4.83789C13.7965 4.83789 16.2683 7.12417 16.2686 9.94434C16.2686 12.7647 13.7966 15.0518 10.748 15.0518C7.69961 15.0516 5.22852 12.7646 5.22852 9.94434C5.22878 7.12427 7.69977 4.83805 10.748 4.83789ZM10.7471 6.62988C8.76829 6.63006 7.16406 8.11462 7.16406 9.94531C7.16428 11.7758 8.76843 13.2596 10.7471 13.2598C12.7259 13.2598 14.3308 11.7759 14.3311 9.94531C14.3311 8.11452 12.726 6.62988 10.7471 6.62988ZM16.4873 3.44336C17.1998 3.44336 17.7773 3.97759 17.7773 4.63672C17.7773 5.29585 17.1998 5.83008 16.4873 5.83008C15.7749 5.83007 15.1973 5.29584 15.1973 4.63672C15.1973 3.9776 15.7749 3.44337 16.4873 3.44336Z" fill="white"/>
</svg>
