<svg width="67" height="67" viewBox="0 0 67 67" fill="none" xmlns="http://www.w3.org/2000/svg">
<path d="M62.8125 4.1875H4.1875V62.8125H62.8125V4.1875Z" fill="#FFCA28"/>
<path d="M39.7812 52.9466L44.0975 50.0903C44.4359 51.1531 46.578 53.6771 49.2837 53.6771C51.9895 53.6771 53.2457 52.1993 53.2457 51.2194C53.2457 48.5495 50.4828 47.6081 49.1558 47.1561C48.9393 47.0824 48.7613 47.0217 48.6395 46.9687C48.5769 46.9415 48.4825 46.9053 48.3612 46.859C46.8853 46.2951 41.4401 44.2148 41.4401 38.1844C41.4401 31.5424 47.8501 30.7786 49.2999 30.7786C50.2481 30.7786 54.8079 30.8948 57.0788 35.1622L52.8913 38.0849C51.9734 36.225 50.4481 35.6107 49.5092 35.6107C47.19 35.6107 46.7067 37.3109 46.7067 38.0849C46.7067 40.2566 49.2266 41.2299 51.354 42.0517C51.9108 42.2668 52.4405 42.4713 52.8913 42.6845C55.2105 43.7803 58.625 45.5738 58.625 51.2194C58.625 54.0472 56.2532 58.6254 50.2822 58.6254C42.2615 58.6254 40.1355 53.81 39.7812 52.9466Z" fill="#3E3E3E"/>
<path d="M18.8438 53.5135L23.3426 50.6589C23.695 51.721 25.0649 53.6795 27.0523 53.6795C29.0399 53.6795 30.0572 51.6381 30.0572 50.6589V31.4066H35.59V50.6589C35.6796 53.3144 34.2069 58.6254 27.707 58.6254C21.731 58.6254 19.2466 55.0737 18.8438 53.5135Z" fill="#3E3E3E"/>
</svg>
