<svg width="125" height="34" viewBox="0 0 125 34" fill="none" xmlns="http://www.w3.org/2000/svg">
<g clip-path="url(#clip0_89_323)">
<path d="M43.8975 27.9528V13.8136H44.1465L54.3214 27.9528H57.5233V7.18919H53.9657V21.2927H53.7166L43.5417 7.18919H40.3398V27.9528H43.8975ZM67.5914 28.2733C72.2876 28.2733 75.1693 25.2104 75.1693 20.0819C75.1693 14.9889 72.2876 11.8904 67.5914 11.8904C62.9309 11.8904 60.0137 14.9889 60.0137 20.0819C60.0492 25.2104 62.8954 28.2733 67.5914 28.2733ZM67.5914 25.2816C65.1011 25.2816 63.678 23.394 63.678 20.0819C63.678 16.8052 65.1011 14.8821 67.5914 14.8821C70.0818 14.8821 71.5049 16.8052 71.5049 20.0819C71.5049 23.394 70.0818 25.2816 67.5914 25.2816ZM78.4068 8.36449V12.3177H75.9164V15.167H78.4068V23.7502C78.4068 26.8131 79.8298 28.0241 83.4586 28.0241C84.1345 28.0241 84.8106 27.9528 85.3442 27.8459V25.068C84.9173 25.1036 84.6326 25.1392 84.1346 25.1392C82.6404 25.1392 81.9644 24.4625 81.9644 22.8954V15.167H85.3442V12.3177H81.9644V8.36449H78.4068ZM87.4788 27.9528H91.0364V12.211H87.4788V27.9528ZM89.2576 9.61101C90.4317 9.61101 91.3922 8.64941 91.3922 7.4741C91.3922 6.2632 90.4317 5.30159 89.2576 5.30159C88.0835 5.30159 87.123 6.2632 87.123 7.4741C87.123 8.64941 88.0835 9.61101 89.2576 9.61101ZM100.784 28.2733C105.48 28.2733 108.362 25.2104 108.362 20.0819C108.362 14.9889 105.48 11.8904 100.784 11.8904C96.1238 11.8904 93.2066 14.9889 93.2066 20.0819C93.2066 25.2104 96.0528 28.2733 100.784 28.2733ZM100.784 25.2816C98.2937 25.2816 96.8714 23.394 96.8714 20.0819C96.8714 16.8052 98.2937 14.8821 100.784 14.8821C103.24 14.8821 104.698 16.8052 104.698 20.0819C104.662 23.394 103.24 25.2816 100.784 25.2816ZM110.461 27.9528H114.019V18.7997C114.019 16.4848 115.371 15.0245 117.47 15.0245C119.64 15.0245 120.636 16.2354 120.636 18.6216V27.9528H124.194V17.7668C124.194 13.9917 122.272 11.8904 118.786 11.8904C116.438 11.8904 114.873 12.9589 114.126 14.7396H113.877V12.211H110.425C110.461 12.211 110.461 27.9528 110.461 27.9528Z" fill="#CFCFCF"/>
<path fill-rule="evenodd" clip-rule="evenodd" d="M6.22799 5.86024C7.26344 6.70519 7.63797 6.63848 9.57671 6.50507L27.8405 5.3933C28.237 5.3933 27.9066 4.99306 27.7744 4.94859L24.7341 2.74727C24.1613 2.30257 23.3682 1.76892 21.8921 1.90232L4.22316 3.21422C3.58426 3.28093 3.45207 3.61446 3.71645 3.85905L6.22799 5.86024ZM7.32954 10.1516V29.541C7.32954 30.5861 7.83625 30.9641 9.0039 30.8974L29.0742 29.7189C30.2418 29.6522 30.3741 28.9406 30.3741 28.0957V8.83979C30.3741 7.99484 30.0436 7.52789 29.3386 7.5946L8.365 8.83979C7.59391 8.9065 7.32954 9.30674 7.32954 10.1516ZM27.1355 11.1968C27.2676 11.7749 27.1355 12.3752 26.5627 12.442L25.5933 12.6421V26.9617C24.7561 27.4064 23.9851 27.6732 23.3241 27.6732C22.2886 27.6732 22.0242 27.3397 21.2532 26.3614L14.9302 16.3331V26.0278L16.9351 26.4725C16.9351 26.4725 16.9351 27.6509 15.3269 27.6509L10.8766 27.9178C10.7444 27.6509 10.8766 27.0062 11.3172 26.8727L12.4848 26.5392V13.7316L10.8766 13.5982C10.7444 13.0201 11.0749 12.1751 11.9781 12.1084L16.7589 11.7749L23.3461 21.9143V12.9533L21.6718 12.7532C21.5395 12.0417 22.0683 11.508 22.7073 11.4413L27.1355 11.1968ZM2.74708 1.43539L21.143 0.0790193C23.3902 -0.1211 23.9851 0.0123133 25.395 1.05738L31.2553 5.21541C32.2246 5.92694 32.5551 6.12707 32.5551 6.90531V29.7412C32.5551 31.1642 32.0484 32.0092 30.2418 32.1425L8.89374 33.4545C7.52783 33.5212 6.88892 33.3211 6.18393 32.4094L1.8438 26.7394C1.07271 25.6943 0.742249 24.916 0.742249 24.0044V3.7034C0.742249 2.52492 1.27099 1.56879 2.74708 1.43539Z" fill="#CFCFCF"/>
</g>
<defs>
<clipPath id="clip0_89_323">
<rect width="123.889" height="34" fill="white" transform="translate(0.742249)"/>
</clipPath>
</defs>
</svg>
