<svg width="549" height="578" viewBox="0 0 549 578" fill="none" xmlns="http://www.w3.org/2000/svg">
<g clip-path="url(#clip0_268_3382)">
<path opacity="0.2" d="M426.141 448.652C509.89 360.479 509.89 217.522 426.141 129.349C342.392 41.1757 206.608 41.1757 122.858 129.349C39.1092 217.522 39.1092 360.479 122.858 448.652C206.608 536.825 342.392 536.825 426.141 448.652Z" fill="#FF3300"/>
<path d="M310.493 321.778H69.5396C63.8131 321.778 59.1708 326.665 59.1708 332.694V500.669C59.1708 506.698 63.8131 511.585 69.5396 511.585H310.493C316.219 511.585 320.862 506.698 320.862 500.669V332.694C320.862 326.665 316.219 321.778 310.493 321.778Z" fill="white" stroke="#090817" stroke-width="2" stroke-linecap="round" stroke-linejoin="round"/>
<path d="M79.5696 344.348C82.3139 344.348 84.5385 342.006 84.5385 339.117C84.5385 336.227 82.3139 333.885 79.5696 333.885C76.8254 333.885 74.6007 336.227 74.6007 339.117C74.6007 342.006 76.8254 344.348 79.5696 344.348Z" fill="#080717"/>
<path d="M103.17 344.348C105.914 344.348 108.139 342.006 108.139 339.117C108.139 336.227 105.914 333.885 103.17 333.885C100.426 333.885 98.2013 336.227 98.2013 339.117C98.2013 342.006 100.426 344.348 103.17 344.348Z" fill="#080717"/>
<path d="M126.772 344.348C129.516 344.348 131.741 342.006 131.741 339.117C131.741 336.227 129.516 333.885 126.772 333.885C124.028 333.885 121.803 336.227 121.803 339.117C121.803 342.006 124.028 344.348 126.772 344.348Z" fill="#080717"/>
<path d="M266.256 298.283H449.281C453.631 298.283 457.157 294.57 457.157 289.991V162.4C457.157 157.82 453.631 154.108 449.281 154.108L266.256 154.108C261.907 154.108 258.381 157.82 258.381 162.4V289.991C258.381 294.57 261.907 298.283 266.256 298.283Z" fill="white" stroke="#090817" stroke-width="2" stroke-linecap="round" stroke-linejoin="round"/>
<path d="M441.663 170.336C443.748 170.336 445.437 168.557 445.437 166.362C445.437 164.168 443.748 162.388 441.663 162.388C439.579 162.388 437.889 164.168 437.889 166.362C437.889 168.557 439.579 170.336 441.663 170.336Z" fill="#080717"/>
<path d="M423.736 170.336C425.82 170.336 427.51 168.557 427.51 166.362C427.51 164.168 425.82 162.388 423.736 162.388C421.651 162.388 419.961 164.168 419.961 166.362C419.961 168.557 421.651 170.336 423.736 170.336Z" fill="#080717"/>
<path d="M405.81 170.336C407.894 170.336 409.584 168.557 409.584 166.362C409.584 164.168 407.894 162.388 405.81 162.388C403.725 162.388 402.035 164.168 402.035 166.362C402.035 168.557 403.725 170.336 405.81 170.336Z" fill="#080717"/>
<path d="M234.779 314.782C234.779 314.782 230.269 334.199 243.798 355.848C257.327 377.497 237.063 397.279 237.063 397.279L195.948 388.839L197.329 351.914L211.982 322.111L234.779 314.782Z" fill="#080717"/>
<path d="M197.329 353.095C219.268 353.095 237.052 334.37 237.052 311.273C237.052 288.176 219.268 269.452 197.329 269.452C175.391 269.452 157.606 288.176 157.606 311.273C157.606 334.37 175.391 353.095 197.329 353.095Z" fill="white" stroke="#090817" stroke-width="2" stroke-linecap="round" stroke-linejoin="round"/>
<path d="M203.956 337.012L180.381 334.18L176.073 373.933L199.648 376.765L203.956 337.012Z" fill="white" stroke="#090817" stroke-width="2" stroke-linecap="round" stroke-linejoin="round"/>
<path d="M111.106 490.891L108.767 511.882H219.998L217.257 476.144L111.106 490.891Z" fill="#FF3300"/>
<path d="M463.881 187.214C462.487 186.279 460.71 188.55 457.792 192.043C454.874 195.535 449.42 198.433 449.42 198.433C449.42 198.433 452.083 192.957 450.941 192.157C449.799 191.356 447.643 194.961 443.711 198.167C439.779 201.373 438.764 209.538 438.764 209.538C438.871 209.538 438.359 210.103 412.433 246.189C412.433 246.189 399.265 199.962 388.827 192.915C380.992 187.626 376.096 189.482 365.866 190.499C365.517 190.535 365.164 190.493 364.832 190.377C364.499 190.261 364.193 190.072 363.933 189.825C363.673 189.577 363.465 189.274 363.323 188.937C363.18 188.6 363.106 188.235 363.106 187.866V167.078H346.741V187.511C346.74 187.911 346.661 188.306 346.511 188.673C346.36 189.04 346.14 189.371 345.864 189.645C345.588 189.92 345.262 190.132 344.906 190.27C344.549 190.408 344.17 190.468 343.791 190.446C330.074 189.675 320.914 189.968 309.965 207.287C296.602 228.428 282.229 247.032 282.229 263.52C282.229 280.009 315.892 298.279 315.892 298.279L352.241 285.929C374.557 270.149 385.669 270.601 391.701 274.093C398.008 277.743 402.265 286.744 410.35 286.314C413.22 286.047 415.943 284.858 418.151 282.908C431.407 272.439 448.505 227.663 451.906 218.523C451.906 218.523 454.497 216.594 458.937 210.585C463.377 204.576 465.277 188.149 463.881 187.214Z" fill="white" stroke="#090817" stroke-width="2" stroke-linecap="round" stroke-linejoin="round"/>
<path d="M196.296 496.719C196.296 496.719 124.776 520.719 99.2285 502.081C96.3224 499.821 93.8893 496.955 92.0808 493.661C79.0539 470.986 99.1256 437.617 118.459 405.484C132.9 381.478 140.382 369.376 153.252 364.573C164.437 360.396 164.952 365.751 200.628 363.612C215.736 362.708 224.043 361.286 233.029 366.505C241.726 371.556 245.521 379.972 247.559 383.866C268.903 424.651 296.442 486.258 300.649 495.698L296.641 512.79H196.296V496.719Z" fill="#FF3300"/>
<path d="M164.773 335.24C168.097 339.521 178.249 351.383 195.08 354.639C200.531 355.692 214.248 358.346 225.468 349.548C235.906 341.363 237.94 328.163 238.835 322.35C241.789 303.189 234.514 282.572 234.503 282.459C227.85 277.586 220.095 274.642 212.019 273.925C203.942 273.207 195.829 274.74 188.494 278.37C162.67 290.854 158.459 314.417 164.773 335.24Z" fill="white" stroke="#090817" stroke-width="2" stroke-linecap="round" stroke-linejoin="round"/>
<path d="M205.969 359.389H172.233V373.984H205.969V359.389Z" fill="#FF3300"/>
<path d="M232.691 387.875L237.063 405.459C237.063 405.459 248.307 412.316 244.799 423.13" stroke="white" stroke-width="2" stroke-linecap="round" stroke-linejoin="round"/>
<path d="M162.177 405.503L131.741 468.232" stroke="white" stroke-width="2" stroke-linecap="round" stroke-linejoin="round"/>
<path d="M108.139 476.144C108.139 476.144 121.542 466.913 134.07 470.078L184.173 484.321" stroke="white" stroke-width="2" stroke-linecap="round" stroke-linejoin="round"/>
<path d="M110.971 507.259C110.971 507.259 146.095 506.215 161.878 503.972" stroke="white" stroke-width="2" stroke-linecap="round" stroke-linejoin="round"/>
<path d="M172.031 499.807C172.031 499.807 180.886 504.48 187.841 503.019C194.795 501.558 200.142 493.43 202.361 494.477C204.581 495.523 207.909 503.019 210.869 503.019C213.828 503.019 206.615 485.787 202.177 482.473C197.739 479.159 174.066 480.721 174.066 480.721C174.066 480.721 162.969 490.848 172.031 499.807Z" fill="white" stroke="#090817" stroke-width="2" stroke-linecap="round" stroke-linejoin="round"/>
<path d="M292.729 234.298L310.788 243.811L384.285 263.248L411.393 239.712C411.393 239.712 400.548 201.555 392.521 194.137C384.494 186.719 377.15 187.837 364.007 189.338C364.007 189.338 361.464 197.15 353.968 197.29C346.472 197.43 345.802 189.338 345.802 189.338C345.802 189.338 331.612 187.425 323.313 191.794C315.013 196.163 292.729 234.298 292.729 234.298Z" fill="#080717"/>
<path d="M390.283 152.758C390.156 151.137 389.423 149.636 388.245 148.585C387.067 147.533 385.541 147.017 384.002 147.149C383.435 139.899 380.361 133.121 375.361 128.1C370.361 123.079 363.785 120.165 356.879 119.911C349.974 119.658 343.221 122.082 337.901 126.724C332.581 131.366 329.065 137.903 328.02 145.094C327.131 144.812 326.192 144.757 325.279 144.935C324.366 145.113 323.508 145.518 322.774 146.117C322.04 146.715 321.453 147.49 321.062 148.376C320.67 149.262 320.485 150.233 320.523 151.209C320.56 152.186 320.819 153.138 321.277 153.988C321.736 154.838 322.38 155.56 323.158 156.094C323.935 156.628 324.822 156.959 325.745 157.058C326.668 157.158 327.601 157.024 328.465 156.667C330.288 167.85 335.585 177.007 343.202 181.106C347.178 183.122 351.526 184.194 355.939 184.245C360.789 183.953 365.505 182.454 369.7 179.873C375.68 176.064 380.029 169.002 382.212 160.272C382.357 159.876 382.492 159.474 382.622 159.07C383.536 159.392 384.512 159.472 385.462 159.3C386.412 159.128 387.307 158.711 388.066 158.085C388.826 157.459 389.426 156.645 389.813 155.716C390.199 154.786 390.361 153.77 390.283 152.758Z" fill="white" stroke="#090817" stroke-width="2" stroke-linecap="round" stroke-linejoin="round"/>
<path d="M300.929 255.505C305.208 257.875 309.173 260.825 312.724 264.279" stroke="#080717" stroke-width="2" stroke-linecap="round" stroke-linejoin="round"/>
<path d="M322.432 215.797V233.961" stroke="white" stroke-width="2" stroke-linecap="round" stroke-linejoin="round"/>
<path d="M388.399 213.393V233.961" stroke="white" stroke-width="2" stroke-linecap="round" stroke-linejoin="round"/>
<path d="M339.716 507.259H219.386C219.082 507.259 218.782 507.191 218.505 507.059C218.229 506.927 217.982 506.734 217.782 506.494C217.582 506.254 217.433 505.971 217.345 505.665C217.257 505.359 217.232 505.037 217.272 504.72L227.657 422.513C227.725 421.974 227.977 421.479 228.365 421.121C228.754 420.763 229.253 420.565 229.769 420.565H349.183C349.485 420.565 349.783 420.632 350.058 420.762C350.333 420.892 350.579 421.083 350.779 421.32C350.979 421.558 351.128 421.838 351.218 422.141C351.308 422.444 351.335 422.764 351.299 423.079L341.831 505.286C341.768 505.83 341.519 506.331 341.129 506.695C340.74 507.058 340.237 507.259 339.716 507.259Z" fill="#080717"/>
<path d="M339.443 501.728H164.039C162.846 501.728 161.878 502.746 161.878 504.003V510.515C161.878 511.772 162.846 512.791 164.039 512.791H339.443C340.637 512.791 341.605 511.772 341.605 510.515V504.003C341.605 502.746 340.637 501.728 339.443 501.728Z" fill="#080717"/>
<path d="M176.016 327.061C170.726 321.401 169.029 314.785 171.172 311.412C172.93 308.646 176.703 307.009 179.69 308.423C183.82 310.37 183.633 317.341 185.202 317.39C186.404 317.431 187.132 313.36 188.375 309.826C190.904 303.091 195.242 297.278 200.858 293.097C208.302 287.574 213.115 289.34 217.371 283.644C219.015 281.233 219.954 278.369 220.072 275.403C220.072 275.403 235.308 283.504 238.3 298.19C238.3 298.19 243.104 282.545 237.063 272.258C231.022 261.972 221.25 267.51 221.25 267.51C221.25 267.51 191.537 246.939 162.177 273.709C132.817 300.479 146.844 337.405 132.317 347.426C117.789 357.448 90.3566 383.77 114.839 411.491C114.839 411.491 142.953 369.318 157.59 368.79C169.577 368.359 179.405 370.07 184.67 362.721C190.327 354.834 187.659 336.328 176.016 327.061Z" fill="#080717"/>
<path d="M322.71 145.232C322.71 145.232 324.601 143.991 325.864 144.85C327.127 145.709 327.328 149.14 328.835 149.46C330.341 149.781 332.148 139.789 335.227 134.292C336.938 131.1 339.628 128.616 342.857 127.246C342.857 127.246 350.219 132.319 358.385 129.503C366.552 126.688 367.89 136.41 374.315 131.197C374.315 131.197 379.736 139.722 380.674 144.162C381.611 148.602 381.142 151.139 382.48 151.209C383.819 151.279 384.79 146.893 385.459 146.523C386.128 146.153 388.337 147.721 388.337 147.721C388.337 147.721 388.103 134.579 385.292 127.25C385.292 127.25 392.583 121.754 388.337 115.411C384.091 109.069 377.93 115.13 363.204 112.589C348.479 110.048 342.188 112.871 339.778 116.677C339.778 116.677 332.951 115.548 328.4 121.192C323.848 126.837 322.323 134.416 322.71 145.232Z" fill="#FF3300"/>
<path d="M288.067 480.358C295.07 480.358 300.746 474.382 300.746 467.01C300.746 459.638 295.07 453.662 288.067 453.662C281.065 453.662 275.389 459.638 275.389 467.01C275.389 474.382 281.065 480.358 288.067 480.358Z" fill="white"/>
<path d="M399.166 293.259H314.543C313.875 293.28 313.224 293.038 312.717 292.579C312.21 292.121 311.884 291.48 311.803 290.782L307.05 233.397C307.032 233.012 307.09 232.627 307.221 232.267C307.352 231.907 307.553 231.579 307.811 231.305C308.068 231.031 308.377 230.817 308.718 230.675C309.058 230.534 309.423 230.468 309.789 230.483H403.922C404.288 230.468 404.653 230.534 404.994 230.675C405.335 230.817 405.644 231.031 405.901 231.305C406.159 231.579 406.36 231.907 406.491 232.267C406.622 232.627 406.681 233.012 406.663 233.397L401.909 290.782C401.827 291.481 401.501 292.122 400.993 292.581C400.486 293.039 399.834 293.281 399.166 293.259Z" fill="#FF3300"/>
<path d="M400.885 291.953H312.823C311.997 291.953 311.327 292.658 311.327 293.528V296.708C311.327 297.578 311.997 298.283 312.823 298.283H400.885C401.711 298.283 402.381 297.578 402.381 296.708V293.528C402.381 292.658 401.711 291.953 400.885 291.953Z" fill="#FF3300"/>
<path d="M357.77 275.232C362.944 275.232 367.138 270.816 367.138 265.368C367.138 259.921 362.944 255.505 357.77 255.505C352.596 255.505 348.402 259.921 348.402 265.368C348.402 270.816 352.596 275.232 357.77 275.232Z" fill="white"/>
<path d="M204.93 279.849C204.93 279.849 194.1 295.147 177.122 296.465" stroke="white" stroke-width="2" stroke-linecap="round" stroke-linejoin="round"/>
<path d="M186.955 285.387C186.955 285.387 177.435 293.036 165.912 290.129" stroke="white" stroke-width="2" stroke-linecap="round" stroke-linejoin="round"/>
<path d="M225.43 271.673C225.43 271.673 234.242 274.834 236.193 282.75" stroke="white" stroke-width="2" stroke-linecap="round" stroke-linejoin="round"/>
<path d="M114.889 391.593C114.889 391.593 108.508 371.724 121.803 364.866C135.098 358.008 141.11 355.194 142.283 345.875" stroke="white" stroke-width="2" stroke-linecap="round" stroke-linejoin="round"/>
<path d="M178.52 341.823C178.52 341.823 186.3 351.628 177.651 359.389" stroke="white" stroke-width="2" stroke-linecap="round" stroke-linejoin="round"/>
<path d="M234.207 350.606C234.207 350.606 240.534 363.635 240.983 368.733" stroke="white" stroke-width="2" stroke-linecap="round" stroke-linejoin="round"/>
<path d="M329.536 137.396C330.3 134.074 332.029 131.085 334.484 128.848" stroke="white" stroke-width="2" stroke-linecap="round" stroke-linejoin="round"/>
<path d="M347.424 122.17C347.424 122.17 352.131 127.913 357.77 124.841C363.409 121.769 366.534 129.443 373.28 126.207" stroke="white" stroke-width="2" stroke-linecap="round" stroke-linejoin="round"/>
<path d="M366.297 120.567C366.297 120.567 376.284 123.345 381.422 118.43" stroke="white" stroke-width="2" stroke-linecap="round" stroke-linejoin="round"/>
<path d="M380.661 134.453C381.554 135.575 382.227 136.874 382.641 138.272C383.055 139.671 383.201 141.142 383.071 142.6" stroke="white" stroke-width="2" stroke-linecap="round" stroke-linejoin="round"/>
<path d="M348.52 146.743C346.468 145.917 344.242 145.694 342.08 146.099C339.917 146.504 337.9 147.521 336.245 149.041" stroke="#080717" stroke-width="2" stroke-linecap="round" stroke-linejoin="round"/>
<path d="M343.336 158.835C345.069 158.835 346.474 157.356 346.474 155.531C346.474 153.707 345.069 152.228 343.336 152.228C341.604 152.228 340.199 153.707 340.199 155.531C340.199 157.356 341.604 158.835 343.336 158.835Z" fill="#080717"/>
<path d="M363.06 146.177C364.857 145.367 366.842 145.136 368.763 145.514C370.685 145.891 372.458 146.861 373.856 148.299" stroke="#080717" stroke-width="2" stroke-linecap="round" stroke-linejoin="round"/>
<path d="M367.875 158.279C369.608 158.279 371.012 156.8 371.012 154.976C371.012 153.152 369.608 151.673 367.875 151.673C366.142 151.673 364.738 153.152 364.738 154.976C364.738 156.8 366.142 158.279 367.875 158.279Z" fill="#080717"/>
<path d="M356.265 153.124C356.265 153.124 359.336 160.668 358.624 161.878C357.912 163.088 354.093 162.808 354.093 162.808" stroke="#080717" stroke-width="2" stroke-linecap="round" stroke-linejoin="round"/>
<path d="M374.967 163.736C374.969 162.091 373.031 160.754 370.637 160.751C368.243 160.748 366.301 162.079 366.299 163.724C366.297 165.37 368.236 166.706 370.63 166.71C373.023 166.713 374.965 165.382 374.967 163.736Z" fill="#FF3300"/>
<path d="M344.622 163.905C344.624 162.26 342.685 160.924 340.291 160.921C337.898 160.919 335.956 162.25 335.954 163.896C335.953 165.541 337.892 166.877 340.286 166.88C342.679 166.882 344.621 165.55 344.622 163.905Z" fill="#FF3300"/>
<path d="M207.376 309.696C205.154 308.603 202.691 308.167 200.251 308.435C197.812 308.704 195.487 309.666 193.528 311.22" stroke="#080717" stroke-width="2" stroke-linecap="round" stroke-linejoin="round"/>
<path d="M204.253 316.957C203.866 316.708 203.433 316.549 202.983 316.492C202.533 316.436 202.077 316.483 201.646 316.63C200.336 317.182 199.06 318.651 197.78 317.101" stroke="#080717" stroke-width="2" stroke-linecap="round" stroke-linejoin="round"/>
<path d="M202.819 323.227C204.754 323.227 206.323 321.575 206.323 319.538C206.323 317.5 204.754 315.849 202.819 315.849C200.884 315.849 199.315 317.5 199.315 319.538C199.315 321.575 200.884 323.227 202.819 323.227Z" fill="#080717"/>
<path d="M224.369 311.068C226.442 310.346 228.672 310.288 230.777 310.9C232.881 311.512 234.766 312.767 236.193 314.506" stroke="#080717" stroke-width="2" stroke-linecap="round" stroke-linejoin="round"/>
<path d="M227.74 318.626C228.147 318.416 228.592 318.302 229.045 318.29C229.498 318.279 229.949 318.372 230.364 318.561C231.619 319.239 232.757 320.832 234.17 319.417" stroke="#080717" stroke-width="2" stroke-linecap="round" stroke-linejoin="round"/>
<path d="M228.934 325.029C230.869 325.029 232.438 323.377 232.438 321.34C232.438 319.302 230.869 317.65 228.934 317.65C226.999 317.65 225.43 319.302 225.43 321.34C225.43 323.377 226.999 325.029 228.934 325.029Z" fill="#080717"/>
<path d="M216.148 318.708C216.148 318.708 218.884 327.41 217.98 328.685C217.076 329.961 212.854 329.267 212.854 329.267" stroke="#080717" stroke-width="2" stroke-linecap="round" stroke-linejoin="round"/>
<path d="M201.372 329.144C201.566 327.318 199.569 325.585 196.912 325.273C194.256 324.961 191.945 326.188 191.751 328.014C191.558 329.84 193.555 331.573 196.211 331.886C198.868 332.198 201.179 330.97 201.372 329.144Z" fill="#FF3300"/>
<path d="M234.162 332.842C234.518 331.044 232.686 329.12 230.069 328.545C227.452 327.97 225.042 328.962 224.685 330.761C224.329 332.56 226.161 334.484 228.778 335.059C231.395 335.633 233.805 334.641 234.162 332.842Z" fill="#FF3300"/>
<path d="M174.429 312.159L179.816 315.849C179.816 315.849 173.176 317.945 177.122 323.228" stroke="#080717" stroke-width="2" stroke-linecap="round" stroke-linejoin="round"/>
<path d="M216.737 339.875C216.904 338.441 214.397 336.939 211.139 336.52C207.881 336.101 205.104 336.924 204.938 338.358C204.772 339.792 207.278 341.294 210.536 341.713C213.795 342.132 216.571 341.309 216.737 339.875Z" stroke="#080717" stroke-width="2" stroke-linecap="round" stroke-linejoin="round"/>
<path d="M352.878 175.06C354.49 175.06 355.796 173.551 355.796 171.688C355.796 169.826 354.49 168.316 352.878 168.316C351.267 168.316 349.961 169.826 349.961 171.688C349.961 173.551 351.267 175.06 352.878 175.06Z" stroke="#080717" stroke-width="2" stroke-linecap="round" stroke-linejoin="round"/>
<path d="M406.669 267.284C406.669 267.284 407.668 252.821 412.433 246.189" stroke="#080717" stroke-width="2" stroke-linecap="round" stroke-linejoin="round"/>
<path d="M322.94 149.042H326.111C326.111 149.042 323.066 152.488 326.619 153.958" stroke="#080717" stroke-width="2" stroke-linecap="round" stroke-linejoin="round"/>
<path d="M387.829 152.228H384.15C384.15 152.228 386.687 154.625 384.15 156.496" stroke="#080717" stroke-width="2" stroke-linecap="round" stroke-linejoin="round"/>
</g>
<defs>
<clipPath id="clip0_268_3382">
<rect width="549" height="578" fill="white"/>
</clipPath>
</defs>
</svg>
