<svg width="97" height="151" viewBox="0 0 97 151" fill="none" xmlns="http://www.w3.org/2000/svg">
<path d="M50.1885 2.363C50.1885 2.363 -4.6885 16.2286 3.36827 53.4576C5.40143 62.8525 11.7881 69.1803 20.0932 72.9739M20.0932 72.9739C44.6986 84.2134 86.1433 73.2097 81.1041 53.824C75.3084 31.5285 26.9527 42.8333 20.0932 72.9739ZM20.0932 72.9739C18.9753 77.8859 18.9595 83.298 20.4096 89.1466C24.2997 104.836 36.1802 113.694 49.2539 117.563M49.2539 117.563C70.9577 123.985 95.95 116.656 93.132 104.004C89.1419 86.0886 53.0619 96.0838 49.2539 117.563ZM49.2539 117.563C48.7526 120.391 48.8106 123.418 49.5749 126.606C56.1441 154.013 96.0518 147.287 96.0518 147.287" stroke="white" stroke-width="5"/>
</svg>
