<svg width="76" height="76" viewBox="0 0 76 76" fill="none" xmlns="http://www.w3.org/2000/svg">
<path fill-rule="evenodd" clip-rule="evenodd" d="M30.9139 4.75C25.6958 4.75 21.4658 8.84576 21.4658 13.8981V20.2315H37.8183V21.9907H14.1981C8.98004 21.9907 4.75 26.0865 4.75 31.1389V44.8611C4.75 49.9135 8.98004 54.0092 14.1981 54.0092H19.6489V46.2686C19.6489 41.2162 23.879 37.1203 29.0971 37.1203H46.5395C50.9549 37.1203 54.534 33.6547 54.534 29.3797V13.8981C54.534 8.84576 50.3042 4.75 45.086 4.75H30.9139ZM28.7337 16.0093C30.5399 16.0093 32.0041 14.5915 32.0041 12.8426C32.0041 11.0937 30.5399 9.67592 28.7337 9.67592C26.9273 9.67592 25.4631 11.0937 25.4631 12.8426C25.4631 14.5915 26.9273 16.0093 28.7337 16.0093Z" fill="url(#paint0_linear_232_21)"/>
<path fill-rule="evenodd" clip-rule="evenodd" d="M45.0856 71.2501C50.3037 71.2501 54.5338 67.1544 54.5338 62.102V55.7686H38.1812V54.0095H61.8015C67.0196 54.0095 71.2495 49.9135 71.2495 44.8612V31.1389C71.2495 26.0866 67.0196 21.9908 61.8015 21.9908H56.3507V29.7315C56.3507 34.7841 52.1206 38.8798 46.9027 38.8798H29.46C25.0446 38.8798 21.4655 42.3454 21.4655 46.6204V62.102C21.4655 67.1544 25.6956 71.2501 30.9135 71.2501H45.0856ZM47.2661 59.9909C45.4596 59.9909 43.9954 61.4085 43.9954 63.1575C43.9954 64.9064 45.4596 66.3241 47.2661 66.3241C49.0722 66.3241 50.5364 64.9064 50.5364 63.1575C50.5364 61.4085 49.0722 59.9909 47.2661 59.9909Z" fill="url(#paint1_linear_232_21)"/>
<defs>
<linearGradient id="paint0_linear_232_21" x1="29.6421" y1="4.75" x2="29.6421" y2="54.0092" gradientUnits="userSpaceOnUse">
<stop stop-color="#327EBD"/>
<stop offset="1" stop-color="#1565A7"/>
</linearGradient>
<linearGradient id="paint1_linear_232_21" x1="46.3576" y1="21.9908" x2="46.3576" y2="71.25" gradientUnits="userSpaceOnUse">
<stop stop-color="#FFDA4B"/>
<stop offset="1" stop-color="#F9C600"/>
</linearGradient>
</defs>
</svg>
