<svg width="61" height="78" viewBox="0 0 61 78" fill="none" xmlns="http://www.w3.org/2000/svg">
<path d="M56.9088 10.2494C50.1257 -0.045797 36.729 -3.09733 27.0426 3.44721L10.0309 14.9449C5.38408 18.045 2.18341 23.0771 1.21376 28.8073C0.402264 33.581 1.11552 38.5052 3.24061 42.8005C1.78444 45.143 0.791275 47.7742 0.321129 50.5351C-0.657894 56.3754 0.622761 62.3876 3.87398 67.2146C10.6585 77.5107 24.0552 80.5609 33.7402 74.0167L50.7519 62.5191C55.399 59.4193 58.5998 54.387 59.569 48.6566C60.3804 43.883 59.6677 38.9589 57.5437 34.6631C58.9995 32.3207 59.9922 29.6896 60.4619 26.9288C61.4416 21.0886 60.1609 15.0761 56.9091 10.2494" fill="#FF3E00"/>
<path d="M25.3791 68.194C19.894 69.7064 14.1016 67.4296 10.8713 62.4914C8.91515 59.5879 8.14458 55.9711 8.7336 52.4579C8.83233 51.8869 8.96821 51.3238 9.14025 50.7727L9.46071 49.7365L10.3325 50.4155C12.3459 51.9843 14.5971 53.1771 16.9891 53.9424L17.6216 54.1459L17.5633 54.8153C17.486 55.7675 17.7292 56.718 18.2497 57.4983C19.2218 58.9858 20.9658 59.6722 22.6177 59.2175C22.9875 59.1127 23.34 58.9484 23.6629 58.7304L40.6801 47.2307C41.522 46.6685 42.1023 45.7568 42.2789 44.7186C42.4553 43.6597 42.2232 42.57 41.6347 41.6944C40.662 40.2066 38.9175 39.5199 37.2649 39.9742C36.8956 40.079 36.5436 40.2432 36.2211 40.4609L29.7275 44.8506C28.6597 45.5706 27.4944 46.1133 26.2719 46.4598C20.7869 47.9722 14.9946 45.6953 11.7643 40.7571C9.8081 37.8537 9.03752 34.2369 9.62662 30.7237C10.2098 27.2769 12.1353 24.2501 14.9308 22.386L31.9465 10.8853C33.0147 10.1642 34.1808 9.62083 35.4043 9.27421C40.8893 7.76191 46.6815 10.0387 49.9118 14.9768C51.868 17.8803 52.6385 21.4971 52.0495 25.0103C51.9504 25.5812 51.8145 26.1443 51.6429 26.6955L51.3224 27.7317L50.451 27.0537C48.4378 25.484 46.1863 24.2907 43.794 23.5253L43.1615 23.3217L43.2198 22.6524C43.2964 21.7002 43.0533 20.75 42.5335 19.9694C41.5613 18.4819 39.8173 17.7955 38.1654 18.2502C37.7956 18.355 37.4431 18.5193 37.1202 18.7373L20.103 30.2375C19.2612 30.7993 18.6813 31.7108 18.5054 32.7489C18.3279 33.8078 18.5597 34.8978 19.1484 35.7735C20.1212 37.2613 21.8656 37.948 23.5182 37.4937C23.8879 37.3886 24.2403 37.2244 24.5633 37.0066L31.0561 32.6185C32.1234 31.8976 33.2887 31.3545 34.5112 31.008C39.9963 29.4957 45.7886 31.7725 49.0188 36.7107C50.9751 39.6141 51.7457 43.2309 51.1565 46.7442C50.573 50.1911 48.6476 53.2181 45.8524 55.0831L28.8367 66.5829C27.7684 67.304 26.6023 67.8474 25.3789 68.194" fill="white"/>
</svg>
