<svg width="21" height="16" viewBox="0 0 21 16" fill="none" xmlns="http://www.w3.org/2000/svg">
<path d="M18.5039 3.85593L18.5167 4.36252C18.5167 9.53565 14.2628 15.4955 6.48289 15.4955C4.09504 15.4955 1.87248 14.8479 0 13.7373C0.330728 13.7731 0.667813 13.793 1.00928 13.793C2.99131 13.793 4.81441 13.1672 6.26172 12.1182C4.41072 12.0865 2.84954 10.9541 2.31057 9.40057C2.57038 9.44625 2.83238 9.46814 3.10723 9.46814C3.49376 9.46814 3.86737 9.42246 4.22169 9.33306C2.28691 8.97148 0.828868 7.39216 0.828868 5.49694V5.44727C1.40005 5.74128 2.0507 5.91609 2.74429 5.93799C1.61048 5.23671 0.863198 4.03878 0.863198 2.68191C0.863198 1.96476 1.07151 1.29328 1.43438 0.715193C3.51948 3.08323 6.63744 4.64072 10.1527 4.80364C10.0796 4.51753 10.0432 4.21758 10.0432 3.91167C10.0432 1.75224 11.9371 0 14.2735 0C15.4889 0 16.5884 0.47477 17.3614 1.23564C18.3234 1.05881 19.2296 0.733034 20.0477 0.286038C19.7321 1.1999 19.0621 1.96672 18.1881 2.45142C19.0407 2.35803 19.8588 2.14545 20.6168 1.83556C20.0499 2.61826 19.3306 3.30764 18.5039 3.85593Z" fill="white"/>
</svg>
