<svg width="64" height="64" viewBox="0 0 64 64" fill="none" xmlns="http://www.w3.org/2000/svg">
<g clip-path="url(#clip0_232_50)">
<path d="M54.4 0H9.6C4.29807 0 0 4.29807 0 9.6V54.4C0 59.7019 4.29807 64 9.6 64H54.4C59.7019 64 64 59.7019 64 54.4V9.6C64 4.29807 59.7019 0 54.4 0Z" fill="#3178C6"/>
<path d="M29.125 35.5001H37.125V30.3751H14.75V35.5001H22.75V58.3751H29.125V35.5001ZM39.625 57.1251C40.6375 57.6501 41.875 58.0376 43.25 58.3001C44.625 58.5626 46.125 58.6876 47.625 58.6876C49.125 58.6876 50.5 58.5501 51.875 58.2626C53.25 57.9751 54.375 57.5001 55.375 56.8876C56.3875 56.2251 57.25 55.3876 57.75 54.2626C58.25 53.1376 58.6375 51.8876 58.6375 50.2626C58.6375 49.1251 58.4625 48.1376 58.125 47.2626C57.7875 46.3876 57.3 45.6376 56.625 45.0126C55.9875 44.3501 55.25 43.7626 54.375 43.2626C53.5 42.7626 52.5 42.2376 51.375 41.7626C50.55 41.4251 49.875 41.1001 49.125 40.7751C48.475 40.4501 47.9125 40.1251 47.5 39.8001C47.0375 39.4626 46.6875 39.1126 46.4375 38.7501C46.1875 38.3751 46.0625 37.9626 46.0625 37.5001C46.0625 37.0751 46.1738 36.6876 46.4 36.3376C46.6263 35.9876 46.9375 35.7001 47.3375 35.4501C47.7375 35.2001 48.2375 35.0126 48.8375 34.8751C49.425 34.7376 50.075 34.6751 50.8375 34.6751C51.3625 34.6751 51.9125 34.7138 52.4625 34.7926C53.0375 34.8713 53.625 34.9926 54.2125 35.1551C54.8 35.3176 55.375 35.5176 55.9625 35.7676C56.5125 36.0176 57.025 36.3051 57.4625 36.6301V30.7551C56.5125 30.3926 55.4625 30.1176 54.3375 29.9426C53.2125 29.7676 51.9625 29.6801 50.4625 29.6801C48.9625 29.6801 47.5875 29.8426 46.2125 30.1551C44.8375 30.4676 43.7125 30.9676 42.7125 31.6551C41.7 32.3301 40.9625 33.1551 40.3375 34.2801C39.75 35.3301 39.4625 36.5301 39.4625 38.0301C39.4625 39.9051 40 41.5301 41.0875 42.7801C42.1625 44.1551 43.8375 45.1551 45.9625 46.1551C46.825 46.5051 47.5875 46.8551 48.3375 47.1926C49.0875 47.5301 49.7125 47.8801 50.2125 48.2426C50.75 48.6051 51.175 49.0051 51.4625 49.4301C51.775 49.8551 51.9375 50.3551 51.9375 50.9301C51.9375 51.3301 51.84 51.7051 51.65 52.0551C51.46 52.4051 51.1625 52.7051 50.7625 52.9551C50.3625 53.2051 49.875 53.4051 49.2625 53.5551C48.675 53.6926 48.0125 53.7676 47.1375 53.7676C45.7625 53.7676 44.3875 53.5301 43.1375 53.0551C41.7625 52.5801 40.5125 51.8676 39.625 51.1251V57.1251Z" fill="white"/>
</g>
<defs>
<clipPath id="clip0_232_50">
<rect width="64" height="64" fill="white"/>
</clipPath>
</defs>
</svg>
