<svg width="131" height="96" viewBox="0 0 131 96" fill="none" xmlns="http://www.w3.org/2000/svg">
<path d="M5.47242 94.916L125.494 94.916C127.964 94.916 129.967 92.8079 129.967 90.2073V5.70869C129.967 3.10816 127.964 1.00003 125.494 1.00003L5.47242 1.00003C3.00237 1.00003 1.00002 3.10816 1.00002 5.70869V90.2073C1.00002 92.8079 3.00237 94.916 5.47242 94.916Z" fill="white" stroke="#090817" stroke-width="2" stroke-linecap="round" stroke-linejoin="round"/>
<path d="M118.532 14.2544C120.689 14.2544 122.437 12.4137 122.437 10.143C122.437 7.87226 120.689 6.03149 118.532 6.03149C116.375 6.03149 114.627 7.87226 114.627 10.143C114.627 12.4137 116.375 14.2544 118.532 14.2544Z" fill="#080717"/>
<path d="M103.286 14.2544C105.442 14.2544 107.191 12.4137 107.191 10.143C107.191 7.87226 105.442 6.03149 103.286 6.03149C101.129 6.03149 99.3804 7.87226 99.3804 10.143C99.3804 12.4137 101.129 14.2544 103.286 14.2544Z" fill="#080717"/>
<path d="M87.5404 14.2544C89.6972 14.2544 91.4456 12.4137 91.4456 10.143C91.4456 7.87226 89.6972 6.03149 87.5404 6.03149C85.3836 6.03149 83.6352 7.87226 83.6352 10.143C83.6352 12.4137 85.3836 14.2544 87.5404 14.2544Z" fill="#080717"/>
<path d="M129.967 18.0374H1" stroke="#080717" stroke-width="2" stroke-linecap="round" stroke-linejoin="round"/>
<mask id="mask0_268_3431" style="mask-type:luminance" maskUnits="userSpaceOnUse" x="65" y="28" width="58" height="51">
<path d="M66.9937 78.5266L121.243 78.5266C121.903 78.5266 122.437 77.9636 122.437 77.269V29.908C122.437 29.2135 121.903 28.6504 121.243 28.6504L66.9937 28.6504C66.334 28.6504 65.7992 29.2135 65.7992 29.908V77.269C65.7992 77.9636 66.334 78.5266 66.9937 78.5266Z" fill="white"/>
</mask>
<g mask="url(#mask0_268_3431)">
<path d="M66.9937 78.5266L121.243 78.5266C121.903 78.5266 122.437 77.9636 122.437 77.269V29.908C122.437 29.2135 121.903 28.6504 121.243 28.6504L66.9937 28.6504C66.334 28.6504 65.7992 29.2135 65.7992 29.908V77.269C65.7992 77.9636 66.334 78.5266 66.9937 78.5266Z" fill="white" stroke="#090817" stroke-width="2" stroke-linecap="round" stroke-linejoin="round"/>
<path d="M135.417 63.4343C135.417 63.4343 113.408 52.7763 106.365 51.6169C99.3225 50.4575 96.2408 61.6641 90.5181 59.0756C84.7954 56.487 79.5874 42.8114 72.6906 41.8846C65.7938 40.9578 62.1267 49.9946 62.1267 49.9946V83.3629H129.915L135.417 63.4343Z" fill="#080717"/>
</g>
<path d="M93.751 47.6002C97.0329 47.6002 99.6935 44.7991 99.6935 41.3438C99.6935 37.8885 97.0329 35.0874 93.751 35.0874C90.469 35.0874 87.8085 37.8885 87.8085 41.3438C87.8085 44.7991 90.469 47.6002 93.751 47.6002Z" fill="#080717"/>
<path d="M57.7379 35.0884H9.99954" stroke="#080717" stroke-width="2" stroke-linecap="round" stroke-linejoin="round"/>
<path d="M57.7379 44.0486H9.99954" stroke="#080717" stroke-width="2" stroke-linecap="round" stroke-linejoin="round"/>
<path d="M57.7379 53.0098H9.99954" stroke="#080717" stroke-width="2" stroke-linecap="round" stroke-linejoin="round"/>
<path d="M57.7379 61.9712H9.99954" stroke="#080717" stroke-width="2" stroke-linecap="round" stroke-linejoin="round"/>
<path d="M57.7379 70.9324H9.99954" stroke="#080717" stroke-width="2" stroke-linecap="round" stroke-linejoin="round"/>
</svg>
