<svg width="110" height="94" viewBox="0 0 110 94" fill="none" xmlns="http://www.w3.org/2000/svg">
<path d="M102.801 1H6.54575C3.48292 1 1 3.61407 1 6.8387V86.5496C1 89.7743 3.48292 92.3884 6.54575 92.3884H102.801C105.864 92.3884 108.347 89.7743 108.347 86.5496V6.8387C108.347 3.61407 105.864 1 102.801 1Z" fill="white" stroke="#090817" stroke-width="2" stroke-linecap="round" stroke-linejoin="round"/>
<path d="M102.703 17.5599C102.703 16.2537 101.698 15.1948 100.457 15.1948H54.6722H31.7799H8.88756C7.64691 15.1948 6.64117 16.2537 6.64117 17.5599V30.7015C6.64117 32.0077 7.64691 33.0665 8.88756 33.0665H100.457C101.698 33.0665 102.703 32.0077 102.703 30.7015V17.5599Z" fill="#080717"/>
<path d="M8.95618 9.40246C10.3544 9.40246 11.4878 8.20916 11.4878 6.73713C11.4878 5.26509 10.3544 4.07178 8.95618 4.07178C7.55801 4.07178 6.42456 5.26509 6.42456 6.73713C6.42456 8.20916 7.55801 9.40246 8.95618 9.40246Z" fill="#080717"/>
<path d="M19.3003 9.40246C20.6985 9.40246 21.832 8.20916 21.832 6.73713C21.832 5.26509 20.6985 4.07178 19.3003 4.07178C17.9022 4.07178 16.7687 5.26509 16.7687 6.73713C16.7687 8.20916 17.9022 9.40246 19.3003 9.40246Z" fill="#080717"/>
<path d="M29.6445 9.40246C31.0427 9.40246 32.1761 8.20916 32.1761 6.73713C32.1761 5.26509 31.0427 4.07178 29.6445 4.07178C28.2463 4.07178 27.1129 5.26509 27.1129 6.73713C27.1129 8.20916 28.2463 9.40246 29.6445 9.40246Z" fill="#080717"/>
<path d="M53.5378 36.6147H8.94228C7.69393 36.6147 6.68195 37.6802 6.68195 38.9945V82.2971C6.68195 83.6113 7.69393 84.6768 8.94228 84.6768H53.5378C54.7862 84.6768 55.7981 83.6113 55.7981 82.2971V38.9945C55.7981 37.6802 54.7862 36.6147 53.5378 36.6147Z" fill="white" stroke="#090817" stroke-width="2" stroke-linecap="round" stroke-linejoin="round"/>
<path d="M62.5577 39.0283H86.1389" stroke="#080717" stroke-width="2" stroke-linecap="round" stroke-linejoin="round"/>
<path d="M91.4917 39.0283H102.294" stroke="#080717" stroke-width="2" stroke-linecap="round" stroke-linejoin="round"/>
<path d="M62.5577 45.1211H72.5394" stroke="#080717" stroke-width="2" stroke-linecap="round" stroke-linejoin="round"/>
<path d="M75.4335 45.1211H102.294" stroke="#080717" stroke-width="2" stroke-linecap="round" stroke-linejoin="round"/>
<path d="M62.5577 51.2126H78.7542" stroke="#080717" stroke-width="2" stroke-linecap="round" stroke-linejoin="round"/>
<path d="M81.7019 51.2126H102.294" stroke="#080717" stroke-width="2" stroke-linecap="round" stroke-linejoin="round"/>
<path d="M62.5577 57.3057H72.5394" stroke="#080717" stroke-width="2" stroke-linecap="round" stroke-linejoin="round"/>
<path d="M75.4335 57.3057H102.294" stroke="#080717" stroke-width="2" stroke-linecap="round" stroke-linejoin="round"/>
<path d="M62.5577 63.3979H90.7679" stroke="#080717" stroke-width="2" stroke-linecap="round" stroke-linejoin="round"/>
<path d="M94.9155 63.3979H102.294" stroke="#080717" stroke-width="2" stroke-linecap="round" stroke-linejoin="round"/>
<path d="M62.5577 69.4907H86.1389" stroke="#080717" stroke-width="2" stroke-linecap="round" stroke-linejoin="round"/>
<path d="M91.4917 69.4907H102.294" stroke="#080717" stroke-width="2" stroke-linecap="round" stroke-linejoin="round"/>
<path d="M62.5577 75.5835H74.3483" stroke="#080717" stroke-width="2" stroke-linecap="round" stroke-linejoin="round"/>
<path d="M78.7543 75.5835H102.294" stroke="#080717" stroke-width="2" stroke-linecap="round" stroke-linejoin="round"/>
<path d="M62.5577 81.6763H86.1389" stroke="#080717" stroke-width="2" stroke-linecap="round" stroke-linejoin="round"/>
<path d="M91.4917 81.6763H102.294" stroke="#080717" stroke-width="2" stroke-linecap="round" stroke-linejoin="round"/>
<path d="M22.7005 68.7863C22.218 68.7863 23.0061 69.3101 11.9779 60.359C11.8538 60.259 11.7536 60.1299 11.6853 59.9819C11.617 59.8339 11.5825 59.6712 11.5846 59.5066C11.5867 59.3421 11.6253 59.1804 11.6973 59.0344C11.7693 58.8884 11.8727 58.7621 11.9993 58.6656L22.3006 50.7509C22.4064 50.6619 22.5282 50.5965 22.6586 50.5585C22.7891 50.5205 22.9256 50.5107 23.0598 50.5297C23.1939 50.5487 23.323 50.5961 23.4393 50.6691C23.5556 50.7421 23.6567 50.8391 23.7364 50.9543C23.8161 51.0695 23.8728 51.2005 23.9032 51.3394C23.9335 51.4783 23.9367 51.6223 23.9128 51.7626C23.8888 51.9028 23.8381 52.0366 23.7638 52.1557C23.6894 52.2748 23.5929 52.3768 23.4801 52.4555L14.2586 59.5405L23.316 66.8897C23.4833 67.0242 23.6062 67.2106 23.6674 67.4226C23.7285 67.6347 23.7248 67.8616 23.6568 68.0713C23.5887 68.281 23.4598 68.4628 23.2882 68.5912C23.1166 68.7195 22.911 68.7877 22.7005 68.7863Z" fill="#080717"/>
<path d="M39.7796 68.7864C39.5704 68.7859 39.3667 68.7166 39.1968 68.5883C39.0269 68.4599 38.8993 68.2789 38.8318 68.0705C38.7644 67.8621 38.7605 67.6367 38.8206 67.4259C38.8808 67.215 39.002 67.0292 39.1673 66.8944L48.2237 59.5452L39.0022 52.4602C38.8893 52.3814 38.7928 52.2794 38.7185 52.1603C38.6441 52.0412 38.5934 51.9075 38.5694 51.7672C38.5455 51.6269 38.5488 51.483 38.5791 51.3441C38.6094 51.2051 38.6661 51.0741 38.7458 50.9589C38.8256 50.8437 38.9266 50.7467 39.0429 50.6737C39.1592 50.6008 39.2883 50.5533 39.4225 50.5343C39.5567 50.5153 39.6931 50.5251 39.8236 50.5631C39.9541 50.6011 40.0759 50.6666 40.1817 50.7555L50.484 58.6703C50.6103 58.767 50.7135 58.8934 50.7853 59.0394C50.857 59.1855 50.8954 59.3471 50.8974 59.5116C50.8994 59.676 50.8649 59.8387 50.7967 59.9866C50.7284 60.1345 50.6283 60.2636 50.5044 60.3636C39.727 69.1059 40.276 68.7864 39.7796 68.7864Z" fill="#080717"/>
<path d="M27.2855 72.1087C27.1294 72.1091 26.9753 72.0711 26.8355 71.9977C26.6957 71.9243 26.5742 71.8176 26.4805 71.6861C26.3868 71.5545 26.3235 71.4018 26.2958 71.24C26.268 71.0782 26.2764 70.9118 26.3205 70.7541L32.0753 49.9415C32.1497 49.6721 32.3227 49.4448 32.5563 49.3096C32.7898 49.1744 33.0648 49.1424 33.3208 49.2207C33.5767 49.299 33.7927 49.4812 33.9211 49.7271C34.0494 49.973 34.0798 50.2625 34.0054 50.532L28.2517 71.3445C28.1913 71.5651 28.0644 71.759 27.8901 71.8968C27.7158 72.0347 27.5036 72.1091 27.2855 72.1087Z" fill="#080717"/>
</svg>
